<svg width="33" height="33" viewBox="0 0 33 33" fill="none" xmlns="http://www.w3.org/2000/svg">
<path d="M32.9876 22.04H22.4276V32.28H10.9076V22.04H0.347576V11.16H10.9076V0.919998H22.4276V11.16H32.9876V22.04Z" fill="white"/>
<path d="M32.9876 22.04V22.34H33.2876V22.04H32.9876ZM22.4276 22.04V21.74H22.1276V22.04H22.4276ZM22.4276 32.28V32.58H22.7276V32.28H22.4276ZM10.9076 32.28H10.6076V32.58H10.9076V32.28ZM10.9076 22.04H11.2076V21.74H10.9076V22.04ZM0.347576 22.04H0.047576V22.34H0.347576V22.04ZM0.347576 11.16V10.86H0.047576V11.16H0.347576ZM10.9076 11.16V11.46H11.2076V11.16H10.9076ZM10.9076 0.919998V0.619999H10.6076V0.919998H10.9076ZM22.4276 0.919998H22.7276V0.619999H22.4276V0.919998ZM22.4276 11.16H22.1276V11.46H22.4276V11.16ZM32.9876 11.16H33.2876V10.86H32.9876V11.16ZM32.9876 21.74H22.4276V22.34H32.9876V21.74ZM22.1276 22.04V32.28H22.7276V22.04H22.1276ZM22.4276 31.98H10.9076V32.58H22.4276V31.98ZM11.2076 32.28V22.04H10.6076V32.28H11.2076ZM10.9076 21.74H0.347576V22.34H10.9076V21.74ZM0.647576 22.04V11.16H0.047576V22.04H0.647576ZM0.347576 11.46H10.9076V10.86H0.347576V11.46ZM11.2076 11.16V0.919998H10.6076V11.16H11.2076ZM10.9076 1.22H22.4276V0.619999H10.9076V1.22ZM22.1276 0.919998V11.16H22.7276V0.919998H22.1276ZM22.4276 11.46H32.9876V10.86H22.4276V11.46ZM32.6876 11.16V22.04H33.2876V11.16H32.6876Z" fill="black"/>
</svg>
