<svg width="606" height="401" viewBox="0 0 606 401" fill="none" xmlns="http://www.w3.org/2000/svg">
<rect x="0.645974" y="80.8454" width="221" height="341" rx="24.5" transform="rotate(-21 0.645974 80.8454)" fill="url(#paint0_linear_8_135)" stroke="black"/>
<circle cx="138.341" cy="313.985" r="2.5" transform="rotate(-21 138.341 313.985)" fill="black"/>
<path d="M166.911 296.591L170.673 306.394L169.287 306.926L167.798 303.047C166.916 303.846 166.036 304.414 165.158 304.751C163.963 305.21 162.923 305.277 162.038 304.953C161.163 304.625 160.519 303.924 160.107 302.85L158.886 299.671L160.259 299.145L161.42 302.169C161.699 302.898 162.134 303.373 162.723 303.597C163.322 303.817 164.027 303.771 164.839 303.46C165.745 303.112 166.572 302.559 167.32 301.801L165.524 297.123L166.911 296.591ZM178.806 299.062C178.846 299.165 178.888 299.304 178.934 299.479L172.912 301.791C173.247 302.412 173.735 302.83 174.374 303.045C175.019 303.247 175.706 303.209 176.434 302.929C177.321 302.589 177.921 302.016 178.233 301.21L179.308 301.794C179.123 302.315 178.817 302.775 178.392 303.174C177.976 303.569 177.46 303.885 176.844 304.122C176.06 304.423 175.303 304.531 174.575 304.446C173.842 304.353 173.197 304.081 172.639 303.631C172.09 303.178 171.676 302.587 171.396 301.859C171.12 301.14 171.03 300.43 171.125 299.729C171.23 299.025 171.501 298.407 171.939 297.874C172.383 297.329 172.96 296.92 173.67 296.648C174.379 296.375 175.072 296.297 175.748 296.412C176.43 296.515 177.036 296.796 177.567 297.257C178.106 297.714 178.519 298.315 178.806 299.062ZM174.105 297.782C173.461 298.029 172.995 298.433 172.706 298.994C172.428 299.551 172.373 300.161 172.542 300.824L177.303 298.997C176.988 298.4 176.536 297.99 175.947 297.766C175.363 297.529 174.749 297.535 174.105 297.782ZM183.359 292.928C184.078 292.652 184.783 292.564 185.475 292.663C186.166 292.761 186.78 293.035 187.316 293.482C187.861 293.926 188.277 294.522 188.564 295.269C188.85 296.015 188.941 296.741 188.837 297.445C188.738 298.137 188.465 298.75 188.017 299.286C187.57 299.822 186.986 300.228 186.267 300.504C185.735 300.709 185.206 300.794 184.679 300.761C184.161 300.724 183.673 300.568 183.214 300.294L184.687 304.131L183.343 304.647L179.451 294.509L180.739 294.014L181.191 295.191C181.332 294.665 181.592 294.212 181.971 293.831C182.346 293.441 182.808 293.14 183.359 292.928ZM185.704 299.371C186.18 299.188 186.564 298.918 186.855 298.56C187.151 298.189 187.332 297.766 187.396 297.291C187.466 296.804 187.402 296.303 187.205 295.79C187.008 295.277 186.722 294.867 186.348 294.561C185.979 294.242 185.562 294.048 185.097 293.98C184.641 293.909 184.175 293.965 183.699 294.148C183.232 294.327 182.85 294.602 182.553 294.973C182.262 295.331 182.08 295.749 182.007 296.227C181.942 296.702 182.009 297.196 182.206 297.709C182.403 298.223 182.686 298.639 183.055 298.958C183.42 299.267 183.837 299.461 184.306 299.538C184.771 299.606 185.237 299.55 185.704 299.371ZM189.092 290.808L190.437 290.292L191.646 293.443L195.875 291.819L194.666 288.668L196.01 288.152L198.859 295.574L197.515 296.09L196.321 292.982L192.092 294.605L193.286 297.714L191.941 298.23L189.092 290.808ZM198.624 287.149L199.969 286.633L202.043 292.038L204.52 284.886L205.738 284.418L208.587 291.84L207.243 292.356L205.168 286.951L202.706 294.098L201.473 294.571L198.624 287.149ZM212.877 286.594L211.337 287.186L212.541 290.322L211.196 290.838L208.347 283.417L209.692 282.9L210.896 286.037L212.464 285.435L213.669 281.374L215.111 280.82L213.667 285.472L218.156 288.167L216.574 288.774L212.877 286.594ZM219.2 279.17C220.227 278.776 221.108 278.727 221.843 279.023C222.587 279.316 223.151 279.962 223.534 280.961L225.255 285.442L223.98 285.931L223.604 284.951C223.513 285.382 223.293 285.772 222.944 286.12C222.601 286.455 222.145 286.732 221.576 286.951C220.745 287.27 220 287.325 219.342 287.117C218.693 286.906 218.243 286.473 217.993 285.82C217.742 285.166 217.779 284.552 218.105 283.977C218.427 283.393 219.106 282.902 220.142 282.504L222.271 281.687L222.169 281.421C221.946 280.842 221.608 280.463 221.154 280.284C220.699 280.105 220.146 280.141 219.492 280.392C219.053 280.56 218.652 280.8 218.29 281.11C217.923 281.412 217.642 281.739 217.446 282.093L216.499 281.3C216.763 280.845 217.131 280.436 217.602 280.073C218.07 279.7 218.602 279.4 219.2 279.17ZM221.402 285.828C221.916 285.631 222.316 285.349 222.604 284.982C222.887 284.605 223.033 284.174 223.039 283.689L222.642 282.653L220.569 283.449C219.43 283.886 219.008 284.487 219.301 285.253C219.445 285.626 219.702 285.865 220.074 285.969C220.446 286.072 220.889 286.025 221.402 285.828ZM226.076 271.598L227.294 271.131L227.737 286.096L226.519 286.564L226.076 271.598ZM237.434 269.52L241.197 279.322L239.797 279.86L238.119 275.491L232.49 277.652L234.167 282.021L232.767 282.558L229.004 272.756L230.404 272.218L232.022 276.433L237.652 274.272L236.034 270.057L237.434 269.52ZM242.782 268.865L239.421 270.155L238.954 268.936L247.062 265.824L247.53 267.042L244.169 268.332L247.464 276.917L246.078 277.449L242.782 268.865ZM251.138 265.657L247.777 266.947L247.309 265.729L255.418 262.617L255.885 263.835L252.524 265.125L255.82 273.709L254.433 274.241L251.138 265.657ZM260.766 260.564C262.036 260.076 263.151 259.996 264.112 260.323C265.073 260.651 265.758 261.347 266.167 262.411C266.575 263.475 266.532 264.45 266.036 265.337C265.541 266.223 264.659 266.91 263.389 267.397L260.966 268.327L262.106 271.296L260.706 271.834L256.943 262.031L260.766 260.564ZM262.879 266.195C263.766 265.855 264.371 265.408 264.695 264.856C265.015 264.294 265.039 263.658 264.766 262.948C264.494 262.239 264.053 261.787 263.442 261.593C262.829 261.389 262.078 261.458 261.191 261.798L258.811 262.712L260.499 267.109L262.879 266.195ZM273.712 266.97C272.974 267.253 272.217 267.415 271.44 267.456C270.669 267.484 270.017 267.392 269.486 267.178L269.584 265.887C270.087 266.08 270.669 266.172 271.33 266.165C271.997 266.144 272.639 266.016 273.255 265.779C274.067 265.468 274.622 265.099 274.919 264.674C275.213 264.24 275.272 263.794 275.097 263.337C274.968 263.001 274.752 262.773 274.449 262.654C274.152 262.521 273.818 262.462 273.449 262.475C273.088 262.485 272.587 262.533 271.945 262.619C271.139 262.725 270.474 262.776 269.948 262.775C269.432 262.769 268.941 262.647 268.474 262.409C268.013 262.157 267.663 261.719 267.423 261.093C267.222 260.57 267.177 260.047 267.286 259.523C267.405 258.995 267.696 258.498 268.159 258.031C268.623 257.564 269.27 257.171 270.101 256.852C270.68 256.629 271.278 256.486 271.895 256.42C272.513 256.354 273.076 256.384 273.585 256.51L273.553 257.808C273.042 257.704 272.528 257.677 272.011 257.725C271.49 257.764 271.006 257.87 270.558 258.042C269.764 258.347 269.222 258.721 268.932 259.164C268.651 259.604 268.598 260.053 268.774 260.51C268.903 260.846 269.121 261.079 269.427 261.207C269.73 261.327 270.068 261.384 270.441 261.38C270.821 261.363 271.32 261.311 271.94 261.223C272.745 261.117 273.406 261.067 273.922 261.073C274.438 261.078 274.925 261.202 275.382 261.444C275.849 261.683 276.2 262.11 276.437 262.726C276.634 263.24 276.675 263.765 276.56 264.302C276.441 264.829 276.145 265.329 275.672 265.799C275.196 266.261 274.543 266.651 273.712 266.97Z" fill="black"/>
<circle cx="124.723" cy="278.509" r="2.5" transform="rotate(-21 124.723 278.509)" fill="black"/>
<path d="M158.32 259.185L162.083 268.988L149.802 273.702L146.039 263.9L147.425 263.367L150.72 271.952L154.795 270.387L151.5 261.803L152.872 261.276L156.168 269.861L160.243 268.296L156.948 259.712L158.32 259.185ZM168.935 257.842L171.784 265.264L170.439 265.78L168.042 259.535L163.855 261.142L166.252 267.387L164.908 267.904L162.059 260.482L168.935 257.842ZM174.156 255.758C175.183 255.363 176.064 255.314 176.799 255.611C177.543 255.903 178.107 256.549 178.49 257.548L180.21 262.029L178.936 262.519L178.56 261.538C178.468 261.97 178.248 262.359 177.9 262.707C177.557 263.042 177.101 263.319 176.532 263.538C175.701 263.857 174.956 263.912 174.298 263.704C173.649 263.493 173.199 263.06 172.948 262.407C172.697 261.753 172.735 261.139 173.06 260.564C173.383 259.98 174.062 259.489 175.098 259.091L177.226 258.274L177.124 258.008C176.902 257.429 176.564 257.05 176.11 256.871C175.655 256.692 175.101 256.728 174.448 256.979C174.009 257.148 173.608 257.387 173.245 257.698C172.879 257.999 172.598 258.327 172.402 258.68L171.454 257.887C171.719 257.432 172.087 257.023 172.558 256.66C173.026 256.288 173.558 255.987 174.156 255.758ZM176.358 262.416C176.871 262.219 177.272 261.936 177.559 261.569C177.843 261.192 177.988 260.761 177.995 260.277L177.597 259.241L175.525 260.036C174.386 260.473 173.963 261.075 174.257 261.84C174.401 262.214 174.658 262.452 175.03 262.556C175.402 262.659 175.844 262.613 176.358 262.416ZM185.695 252.758L181.578 254.338L183.976 260.584L182.631 261.1L179.782 253.678L185.244 251.582L185.695 252.758ZM189.24 249.967C190.267 249.573 191.148 249.524 191.883 249.821C192.627 250.113 193.191 250.759 193.574 251.758L195.294 256.239L194.02 256.728L193.644 255.748C193.552 256.18 193.332 256.569 192.984 256.917C192.641 257.252 192.185 257.529 191.616 257.748C190.785 258.067 190.04 258.122 189.382 257.914C188.733 257.703 188.283 257.27 188.032 256.617C187.782 255.963 187.819 255.349 188.145 254.774C188.467 254.19 189.146 253.699 190.182 253.301L192.311 252.484L192.208 252.218C191.986 251.639 191.648 251.26 191.194 251.081C190.739 250.902 190.185 250.938 189.532 251.189C189.093 251.357 188.692 251.597 188.33 251.907C187.963 252.209 187.682 252.536 187.486 252.89L186.538 252.097C186.803 251.642 187.171 251.233 187.642 250.87C188.11 250.498 188.642 250.197 189.24 249.967ZM191.442 256.625C191.955 256.428 192.356 256.146 192.643 255.779C192.927 255.402 193.072 254.971 193.079 254.487L192.681 253.45L190.609 254.246C189.47 254.683 189.047 255.284 189.341 256.05C189.485 256.423 189.742 256.662 190.114 256.766C190.486 256.869 190.929 256.823 191.442 256.625Z" fill="black"/>
<circle cx="111.105" cy="243.033" r="2.5" transform="rotate(-21 111.105 243.033)" fill="black"/>
<path d="M132.421 228.424L139.815 225.585L140.272 226.776L134.264 229.082L135.339 231.882L138.392 230.711C139.559 230.263 140.539 230.165 141.332 230.417C142.125 230.67 142.698 231.254 143.049 232.169C143.418 233.13 143.37 233.995 142.904 234.763C142.447 235.527 141.608 236.144 140.385 236.614L136.184 238.226L132.421 228.424ZM139.904 235.529C140.707 235.221 141.259 234.832 141.561 234.362C141.863 233.893 141.899 233.36 141.67 232.762C141.215 231.577 140.166 231.299 138.522 231.93L135.764 232.989L137.145 236.588L139.904 235.529ZM151.502 228.136C151.541 228.239 151.584 228.378 151.63 228.553L145.608 230.865C145.943 231.486 146.43 231.904 147.07 232.119C147.715 232.321 148.402 232.283 149.13 232.003C150.017 231.663 150.616 231.09 150.929 230.285L152.004 230.868C151.818 231.389 151.513 231.849 151.088 232.248C150.672 232.643 150.156 232.959 149.54 233.196C148.755 233.497 147.999 233.605 147.27 233.521C146.538 233.427 145.893 233.155 145.334 232.705C144.786 232.252 144.371 231.661 144.092 230.933C143.816 230.214 143.725 229.504 143.821 228.803C143.925 228.099 144.197 227.481 144.635 226.948C145.079 226.403 145.656 225.994 146.365 225.722C147.075 225.449 147.768 225.371 148.444 225.486C149.126 225.589 149.732 225.87 150.262 226.331C150.802 226.788 151.215 227.39 151.502 228.136ZM146.801 226.856C146.157 227.103 145.69 227.507 145.402 228.068C145.123 228.625 145.068 229.235 145.237 229.899L149.998 228.071C149.684 227.474 149.232 227.064 148.642 226.84C148.059 226.604 147.445 226.609 146.801 226.856ZM158.263 229.847C157.507 230.137 156.767 230.234 156.044 230.136C155.331 230.035 154.697 229.765 154.142 229.324C153.584 228.874 153.165 228.285 152.885 227.557C152.606 226.829 152.525 226.116 152.642 225.417C152.756 224.709 153.046 224.084 153.512 223.541C153.984 222.985 154.599 222.561 155.355 222.271C156.027 222.013 156.676 221.919 157.303 221.989C157.939 222.056 158.5 222.29 158.987 222.692L158.217 223.743C157.848 223.478 157.456 223.323 157.043 223.278C156.629 223.233 156.212 223.292 155.792 223.453C155.307 223.639 154.909 223.915 154.6 224.28C154.299 224.642 154.114 225.066 154.044 225.554C153.98 226.028 154.046 226.522 154.243 227.036C154.444 227.559 154.729 227.98 155.098 228.299C155.472 228.605 155.892 228.792 156.357 228.859C156.832 228.924 157.312 228.863 157.797 228.676C158.217 228.515 158.566 228.279 158.844 227.969C159.121 227.659 159.308 227.282 159.405 226.838L160.675 227.09C160.583 227.714 160.324 228.269 159.899 228.753C159.481 229.224 158.935 229.589 158.263 229.847ZM167.023 217.873L169.872 225.295L168.527 225.811L166.13 219.565L161.943 221.172L164.34 227.418L162.996 227.934L160.147 220.512L167.023 217.873ZM175.684 223.16C174.947 223.443 174.221 223.534 173.508 223.433C172.794 223.332 172.16 223.061 171.605 222.621C171.056 222.167 170.642 221.577 170.362 220.848C170.083 220.12 169.997 219.409 170.105 218.714C170.219 218.006 170.509 217.38 170.976 216.837C171.438 216.285 172.038 215.867 172.776 215.584C173.514 215.301 174.234 215.211 174.939 215.316C175.649 215.408 176.278 215.68 176.827 216.133C177.382 216.574 177.799 217.158 178.078 217.886C178.358 218.615 178.441 219.333 178.327 220.041C178.219 220.735 177.933 221.359 177.471 221.912C177.017 222.461 176.422 222.877 175.684 223.16ZM175.233 221.983C175.709 221.801 176.092 221.53 176.383 221.172C176.68 220.801 176.861 220.378 176.925 219.904C176.985 219.42 176.917 218.921 176.72 218.408C176.523 217.894 176.242 217.483 175.877 217.173C175.508 216.854 175.091 216.661 174.626 216.593C174.17 216.522 173.704 216.577 173.228 216.76C172.751 216.943 172.363 217.215 172.063 217.577C171.772 217.935 171.591 218.358 171.521 218.845C171.457 219.319 171.524 219.813 171.721 220.327C171.918 220.84 172.201 221.257 172.57 221.576C172.944 221.882 173.361 222.075 173.821 222.156C174.286 222.224 174.757 222.166 175.233 221.983ZM184.912 211.005L187.761 218.427L186.417 218.943L184.019 212.698L180.827 213.923L181.377 215.608C181.714 216.625 181.946 217.495 182.073 218.217C182.197 218.93 182.186 219.544 182.042 220.061C181.897 220.577 181.559 220.937 181.026 221.141C180.784 221.234 180.492 221.298 180.152 221.332L179.8 220.166C179.933 220.147 180.05 220.118 180.153 220.079C180.526 219.935 180.743 219.665 180.805 219.266C180.866 218.868 180.839 218.434 180.723 217.964C180.607 217.494 180.412 216.835 180.14 215.986L179.213 213.193L184.912 211.005ZM195.66 211.186C195.699 211.288 195.742 211.427 195.788 211.603L189.766 213.914C190.101 214.535 190.588 214.953 191.228 215.169C191.873 215.371 192.56 215.332 193.288 215.053C194.175 214.712 194.775 214.139 195.087 213.334L196.162 213.917C195.977 214.438 195.671 214.898 195.246 215.297C194.83 215.693 194.314 216.008 193.698 216.245C192.914 216.546 192.157 216.654 191.428 216.57C190.696 216.476 190.051 216.204 189.493 215.754C188.944 215.301 188.529 214.71 188.25 213.982C187.974 213.263 187.884 212.553 187.979 211.853C188.083 211.148 188.355 210.53 188.793 209.998C189.237 209.452 189.814 209.043 190.524 208.771C191.233 208.499 191.926 208.42 192.602 208.536C193.284 208.638 193.89 208.919 194.421 209.38C194.96 209.837 195.373 210.439 195.66 211.186ZM190.959 209.905C190.315 210.153 189.849 210.557 189.56 211.117C189.281 211.674 189.226 212.284 189.395 212.948L194.157 211.12C193.842 210.523 193.39 210.113 192.801 209.889C192.217 209.653 191.603 209.658 190.959 209.905ZM201.525 208.709C202.07 208.65 202.534 208.713 202.915 208.899C203.297 209.084 203.571 209.392 203.736 209.821C203.904 210.26 203.905 210.709 203.739 211.169C203.569 211.62 203.256 212.046 202.799 212.446C202.348 212.833 201.796 213.153 201.142 213.403C200.591 213.615 200.023 213.753 199.437 213.817C198.857 213.868 198.309 213.837 197.795 213.724L197.808 212.546C198.249 212.634 198.723 212.656 199.231 212.611C199.735 212.556 200.22 212.44 200.687 212.261C201.322 212.017 201.785 211.716 202.076 211.358C202.373 210.987 202.449 210.615 202.306 210.241C202.174 209.896 201.917 209.689 201.538 209.62C201.167 209.548 200.707 209.618 200.156 209.83L198.797 210.351L198.426 209.385L199.687 208.901C200.191 208.707 200.554 208.466 200.775 208.178C200.996 207.889 201.048 207.591 200.93 207.283C200.801 206.947 200.528 206.752 200.11 206.698C199.703 206.64 199.209 206.722 198.631 206.944C197.893 207.228 197.187 207.718 196.512 208.416L195.75 207.52C196.48 206.715 197.34 206.122 198.33 205.742C198.927 205.513 199.496 205.391 200.037 205.376C200.578 205.362 201.042 205.456 201.431 205.66C201.82 205.865 202.09 206.163 202.241 206.555C202.38 206.919 202.385 207.292 202.253 207.675C202.121 208.057 201.879 208.402 201.525 208.709ZM203.758 203.771L205.102 203.255L206.312 206.406L210.541 204.783L209.332 201.632L210.676 201.116L213.525 208.538L212.181 209.054L210.987 205.945L206.758 207.568L207.951 210.677L206.607 211.193L203.758 203.771ZM219.35 206.398C218.613 206.681 217.887 206.772 217.173 206.671C216.46 206.57 215.826 206.299 215.271 205.859C214.722 205.406 214.308 204.815 214.028 204.087C213.749 203.358 213.663 202.647 213.771 201.952C213.885 201.244 214.175 200.619 214.641 200.075C215.104 199.523 215.704 199.105 216.442 198.822C217.179 198.539 217.9 198.45 218.605 198.554C219.315 198.646 219.944 198.918 220.493 199.372C221.048 199.812 221.465 200.397 221.744 201.125C222.024 201.853 222.107 202.571 221.993 203.279C221.885 203.974 221.599 204.597 221.136 205.15C220.683 205.699 220.088 206.115 219.35 206.398ZM218.898 205.222C219.375 205.039 219.758 204.768 220.049 204.41C220.346 204.039 220.526 203.617 220.591 203.142C220.651 202.658 220.583 202.16 220.386 201.646C220.189 201.133 219.908 200.721 219.542 200.411C219.174 200.092 218.757 199.899 218.291 199.831C217.836 199.76 217.37 199.816 216.893 199.998C216.417 200.181 216.029 200.453 215.729 200.815C215.438 201.173 215.257 201.596 215.187 202.083C215.123 202.558 215.19 203.052 215.387 203.565C215.584 204.079 215.867 204.495 216.235 204.814C216.61 205.12 217.027 205.313 217.487 205.394C217.952 205.462 218.422 205.404 218.898 205.222ZM228.377 202.933C227.621 203.223 226.881 203.32 226.158 203.222C225.445 203.121 224.811 202.85 224.256 202.41C223.698 201.96 223.279 201.371 222.999 200.643C222.72 199.915 222.639 199.201 222.756 198.503C222.87 197.795 223.16 197.17 223.627 196.626C224.099 196.07 224.713 195.647 225.469 195.357C226.141 195.099 226.791 195.005 227.417 195.075C228.053 195.141 228.615 195.376 229.101 195.778L228.332 196.829C227.962 196.564 227.571 196.409 227.157 196.364C226.743 196.319 226.327 196.377 225.907 196.538C225.421 196.725 225.024 197.001 224.714 197.366C224.414 197.728 224.228 198.152 224.158 198.64C224.094 199.114 224.161 199.608 224.358 200.122C224.558 200.644 224.843 201.065 225.212 201.384C225.587 201.69 226.006 201.877 226.472 201.945C226.946 202.009 227.426 201.948 227.912 201.762C228.332 201.601 228.68 201.365 228.958 201.055C229.235 200.745 229.422 200.368 229.52 199.924L230.789 200.175C230.697 200.8 230.438 201.354 230.014 201.839C229.595 202.31 229.049 202.675 228.377 202.933ZM236.148 192.687L233.432 193.73L235.829 199.976L234.485 200.492L232.087 194.246L229.371 195.289L228.919 194.113L235.697 191.511L236.148 192.687ZM241.47 192.187C242.417 191.834 243.218 191.773 243.874 192.003C244.53 192.233 245.005 192.731 245.299 193.497C245.607 194.3 245.575 195.025 245.202 195.671C244.834 196.305 244.149 196.809 243.147 197.183L239.921 198.405L237.072 190.983L238.416 190.467L239.378 192.974L241.47 192.187ZM242.642 196.204C243.253 195.98 243.664 195.683 243.875 195.313C244.096 194.939 244.111 194.504 243.921 194.01C243.735 193.524 243.445 193.229 243.05 193.123C242.666 193.013 242.159 193.074 241.53 193.305L239.754 193.954L240.873 196.867L242.642 196.204Z" fill="black"/>
<circle cx="97.4874" cy="207.557" r="2.5" transform="rotate(-21 97.4874 207.557)" fill="black"/>
<path d="M126.992 201.18C126.011 201.556 125.042 201.682 124.084 201.557C123.131 201.419 122.286 201.058 121.547 200.474C120.805 199.88 120.251 199.107 119.886 198.155C119.52 197.203 119.417 196.263 119.574 195.335C119.729 194.397 120.12 193.561 120.749 192.827C121.374 192.084 122.177 191.524 123.157 191.148C123.922 190.854 124.673 190.716 125.408 190.733C126.14 190.742 126.826 190.912 127.468 191.244L126.896 192.476C125.861 191.984 124.793 191.95 123.691 192.372C122.963 192.652 122.368 193.068 121.905 193.621C121.442 194.173 121.154 194.803 121.04 195.511C120.932 196.206 121.014 196.908 121.286 197.618C121.559 198.327 121.969 198.909 122.518 199.362C123.073 199.803 123.707 200.073 124.421 200.174C125.134 200.275 125.855 200.186 126.583 199.906C127.676 199.487 128.445 198.742 128.891 197.671L130.139 198.204C129.885 198.88 129.486 199.473 128.942 199.981C128.407 200.486 127.757 200.886 126.992 201.18ZM135.29 197.962C134.552 198.245 133.826 198.336 133.113 198.235C132.399 198.134 131.765 197.864 131.21 197.423C130.662 196.97 130.247 196.379 129.968 195.651C129.688 194.923 129.603 194.211 129.711 193.516C129.825 192.808 130.115 192.183 130.581 191.64C131.044 191.087 131.644 190.669 132.381 190.386C133.119 190.103 133.84 190.014 134.544 190.118C135.254 190.21 135.884 190.483 136.432 190.936C136.987 191.376 137.404 191.961 137.684 192.689C137.963 193.417 138.046 194.135 137.932 194.843C137.824 195.538 137.539 196.162 137.076 196.714C136.623 197.263 136.027 197.679 135.29 197.962ZM134.838 196.786C135.314 196.603 135.698 196.333 135.989 195.975C136.285 195.604 136.466 195.181 136.53 194.706C136.591 194.223 136.523 193.724 136.325 193.21C136.128 192.697 135.847 192.285 135.482 191.976C135.113 191.657 134.696 191.463 134.231 191.395C133.775 191.324 133.309 191.38 132.833 191.563C132.357 191.745 131.969 192.018 131.668 192.379C131.377 192.737 131.197 193.16 131.127 193.647C131.063 194.122 131.129 194.616 131.326 195.129C131.523 195.643 131.806 196.059 132.175 196.378C132.55 196.684 132.967 196.878 133.426 196.958C133.891 197.026 134.362 196.969 134.838 196.786ZM144.627 189.863C145.681 189.737 146.393 190.154 146.763 191.116C147.013 191.77 146.959 192.369 146.601 192.913C146.252 193.454 145.591 193.911 144.621 194.284L141.05 195.655L138.201 188.233L141.645 186.91C142.523 186.574 143.274 186.478 143.898 186.624C144.518 186.761 144.944 187.133 145.177 187.74C145.328 188.132 145.351 188.514 145.248 188.886C145.15 189.245 144.943 189.57 144.627 189.863ZM140.743 190.92L142.759 190.146C143.273 189.949 143.624 189.707 143.814 189.42C144.013 189.129 144.044 188.807 143.908 188.452C143.636 187.742 142.977 187.588 141.931 187.99L139.915 188.764L140.743 190.92ZM144.125 193.285C144.685 193.07 145.071 192.82 145.283 192.536C145.495 192.251 145.529 191.921 145.386 191.548C145.239 191.165 144.999 190.931 144.666 190.844C144.342 190.754 143.905 190.815 143.354 191.027L141.113 191.887L141.968 194.113L144.125 193.285ZM149.422 183.845C150.449 183.451 151.33 183.402 152.065 183.698C152.81 183.991 153.373 184.637 153.757 185.635L155.477 190.117L154.203 190.606L153.826 189.626C153.735 190.057 153.515 190.447 153.167 190.795C152.824 191.13 152.368 191.407 151.798 191.625C150.967 191.944 150.223 192 149.565 191.792C148.916 191.58 148.466 191.148 148.215 190.494C147.964 189.841 148.002 189.226 148.327 188.652C148.649 188.067 149.328 187.576 150.365 187.179L152.493 186.362L152.391 186.095C152.169 185.517 151.831 185.138 151.376 184.959C150.922 184.78 150.368 184.815 149.714 185.066C149.276 185.235 148.875 185.474 148.512 185.785C148.146 186.086 147.864 186.414 147.668 186.768L146.721 185.974C146.986 185.519 147.353 185.11 147.825 184.747C148.292 184.375 148.825 184.074 149.422 183.845ZM151.625 190.503C152.138 190.306 152.538 190.024 152.826 189.656C153.11 189.279 153.255 188.849 153.262 188.364L152.864 187.328L150.792 188.123C149.653 188.561 149.23 189.162 149.524 189.927C149.667 190.301 149.925 190.539 150.297 190.643C150.668 190.747 151.111 190.7 151.625 190.503Z" fill="black"/>
<circle cx="83.8694" cy="172.081" r="2.5" transform="rotate(-21 83.8694 172.081)" fill="black"/>
<path d="M117.872 158.209C118.37 159.507 118.308 160.698 117.685 161.783C117.063 162.868 115.936 163.756 114.305 164.446L114.703 165.483L113.401 165.983L113.003 164.946C111.325 165.515 109.887 165.607 108.689 165.22C107.501 164.83 106.659 163.991 106.165 162.703C105.666 161.405 105.729 160.214 106.351 159.129C106.983 158.04 108.112 157.146 109.74 156.446L109.358 155.452L110.66 154.952L111.042 155.946C112.71 155.381 114.141 155.298 115.333 155.697C116.531 156.083 117.377 156.921 117.872 158.209ZM113.886 163.354C115.108 162.799 115.944 162.13 116.393 161.347C116.848 160.551 116.891 159.673 116.522 158.711C116.16 157.768 115.541 157.159 114.664 156.885C113.794 156.598 112.728 156.654 111.467 157.052L113.886 163.354ZM107.523 162.181C107.888 163.134 108.507 163.753 109.377 164.04C110.254 164.314 111.322 164.252 112.583 163.854L110.164 157.552C108.942 158.107 108.102 158.778 107.643 159.565C107.194 160.348 107.154 161.22 107.523 162.181ZM126.987 156.14C127.027 156.242 127.069 156.381 127.115 156.557L121.094 158.868C121.428 159.489 121.916 159.907 122.555 160.123C123.201 160.325 123.887 160.286 124.616 160.006C125.502 159.666 126.102 159.093 126.414 158.288L127.49 158.871C127.304 159.392 126.999 159.852 126.573 160.251C126.157 160.646 125.641 160.962 125.025 161.199C124.241 161.5 123.484 161.608 122.756 161.524C122.023 161.43 121.378 161.158 120.82 160.708C120.271 160.255 119.857 159.664 119.577 158.936C119.301 158.217 119.211 157.507 119.306 156.807C119.411 156.102 119.682 155.484 120.12 154.952C120.565 154.406 121.141 153.997 121.851 153.725C122.56 153.453 123.253 153.374 123.929 153.489C124.611 153.592 125.218 153.873 125.748 154.334C126.287 154.791 126.701 155.393 126.987 156.14ZM122.286 154.859C121.642 155.107 121.176 155.511 120.888 156.071C120.609 156.628 120.554 157.238 120.723 157.902L125.484 156.074C125.169 155.477 124.717 155.067 124.128 154.843C123.544 154.607 122.93 154.612 122.286 154.859ZM127.632 151.586L128.977 151.07L131.052 156.476L133.528 149.323L134.746 148.855L137.595 156.277L136.251 156.793L134.176 151.388L131.714 158.535L130.481 159.008L127.632 151.586ZM130.734 149.287C130.043 149.552 129.444 149.595 128.936 149.415C128.424 149.226 128.043 148.82 127.794 148.198L128.704 147.849C128.846 148.191 129.07 148.426 129.377 148.555C129.689 148.67 130.036 148.655 130.419 148.508C130.802 148.361 131.071 148.14 131.225 147.845C131.376 147.541 131.39 147.214 131.267 146.865L132.205 146.505C132.436 147.134 132.42 147.692 132.157 148.178C131.89 148.656 131.416 149.025 130.734 149.287ZM145.504 149.032C145.543 149.135 145.586 149.273 145.632 149.449L139.61 151.76C139.945 152.381 140.432 152.8 141.072 153.015C141.717 153.217 142.404 153.178 143.132 152.899C144.019 152.558 144.619 151.985 144.931 151.18L146.006 151.763C145.821 152.284 145.515 152.744 145.09 153.143C144.674 153.539 144.158 153.855 143.542 154.091C142.757 154.392 142.001 154.5 141.272 154.416C140.54 154.322 139.895 154.05 139.337 153.6C138.788 153.147 138.373 152.556 138.094 151.828C137.818 151.109 137.728 150.399 137.823 149.699C137.927 148.995 138.199 148.376 138.637 147.844C139.081 147.298 139.658 146.89 140.367 146.617C141.077 146.345 141.77 146.266 142.446 146.382C143.128 146.484 143.734 146.766 144.264 147.226C144.804 147.683 145.217 148.285 145.504 149.032ZM140.803 147.751C140.159 147.999 139.692 148.403 139.404 148.963C139.125 149.52 139.07 150.13 139.239 150.794L144.001 148.966C143.686 148.369 143.234 147.959 142.644 147.735C142.061 147.499 141.447 147.504 140.803 147.751ZM150.057 142.898C150.776 142.622 151.481 142.533 152.172 142.632C152.864 142.731 153.477 143.004 154.013 143.452C154.559 143.896 154.975 144.491 155.261 145.238C155.548 145.985 155.639 146.711 155.535 147.415C155.436 148.106 155.163 148.72 154.715 149.256C154.267 149.792 153.684 150.198 152.965 150.474C152.433 150.678 151.903 150.763 151.377 150.73C150.859 150.693 150.371 150.538 149.912 150.264L151.385 154.101L150.041 154.617L146.149 144.478L147.437 143.984L147.889 145.16C148.03 144.635 148.29 144.181 148.668 143.8C149.043 143.41 149.506 143.109 150.057 142.898ZM152.402 149.34C152.878 149.158 153.261 148.887 153.552 148.529C153.849 148.158 154.03 147.735 154.094 147.261C154.164 146.773 154.1 146.273 153.903 145.76C153.706 145.246 153.42 144.836 153.046 144.53C152.677 144.211 152.26 144.018 151.795 143.95C151.339 143.879 150.873 143.934 150.397 144.117C149.93 144.296 149.548 144.571 149.251 144.942C148.96 145.3 148.778 145.718 148.704 146.197C148.64 146.671 148.707 147.165 148.904 147.679C149.101 148.192 149.384 148.608 149.753 148.927C150.118 149.237 150.535 149.43 151.004 149.508C151.469 149.575 151.935 149.52 152.402 149.34ZM162.216 142.408C163.271 142.281 163.983 142.699 164.352 143.661C164.603 144.314 164.549 144.913 164.19 145.458C163.841 145.999 163.181 146.456 162.21 146.829L158.639 148.199L155.79 140.777L159.235 139.455C160.113 139.118 160.863 139.023 161.487 139.169C162.107 139.306 162.534 139.678 162.767 140.284C162.917 140.676 162.941 141.058 162.837 141.43C162.739 141.789 162.532 142.115 162.216 142.408ZM158.332 143.465L160.349 142.691C160.862 142.494 161.214 142.252 161.403 141.965C161.602 141.674 161.634 141.351 161.498 140.996C161.225 140.287 160.566 140.133 159.521 140.534L157.504 141.308L158.332 143.465ZM161.714 145.83C162.274 145.615 162.66 145.365 162.872 145.08C163.084 144.795 163.119 144.466 162.975 144.093C162.828 143.71 162.588 143.475 162.255 143.389C161.932 143.299 161.494 143.36 160.944 143.571L158.703 144.431L159.558 146.658L161.714 145.83ZM172.54 138.654C172.58 138.756 172.622 138.895 172.668 139.07L166.647 141.382C166.982 142.003 167.469 142.421 168.108 142.636C168.754 142.839 169.44 142.8 170.169 142.52C171.055 142.18 171.655 141.607 171.967 140.802L173.043 141.385C172.857 141.906 172.552 142.366 172.126 142.765C171.71 143.16 171.194 143.476 170.578 143.713C169.794 144.014 169.037 144.122 168.309 144.038C167.577 143.944 166.931 143.672 166.373 143.222C165.824 142.769 165.41 142.178 165.13 141.45C164.854 140.731 164.764 140.021 164.859 139.32C164.964 138.616 165.235 137.998 165.674 137.465C166.118 136.92 166.694 136.511 167.404 136.239C168.113 135.967 168.806 135.888 169.483 136.003C170.165 136.106 170.771 136.387 171.301 136.848C171.841 137.305 172.254 137.907 172.54 138.654ZM167.839 137.373C167.195 137.62 166.729 138.024 166.441 138.585C166.162 139.142 166.107 139.752 166.276 140.416L171.037 138.588C170.722 137.991 170.27 137.581 169.681 137.357C169.097 137.121 168.483 137.126 167.839 137.373ZM177.093 132.519C177.812 132.243 178.517 132.155 179.209 132.254C179.9 132.353 180.514 132.626 181.05 133.073C181.595 133.517 182.011 134.113 182.298 134.86C182.585 135.607 182.676 136.332 182.571 137.036C182.472 137.728 182.199 138.341 181.751 138.877C181.304 139.413 180.72 139.819 180.002 140.095C179.469 140.3 178.94 140.385 178.413 140.352C177.895 140.315 177.407 140.159 176.949 139.886L178.422 143.723L177.077 144.239L173.185 134.1L174.474 133.605L174.925 134.782C175.066 134.256 175.326 133.803 175.705 133.422C176.08 133.032 176.543 132.731 177.093 132.519ZM179.438 138.962C179.914 138.779 180.298 138.509 180.589 138.151C180.886 137.78 181.066 137.357 181.13 136.883C181.2 136.395 181.137 135.895 180.939 135.381C180.742 134.868 180.457 134.458 180.082 134.152C179.713 133.833 179.296 133.639 178.831 133.572C178.375 133.5 177.909 133.556 177.433 133.739C176.966 133.918 176.584 134.193 176.288 134.564C175.997 134.922 175.814 135.34 175.741 135.818C175.677 136.293 175.743 136.787 175.94 137.3C176.137 137.814 176.42 138.23 176.789 138.549C177.154 138.859 177.571 139.052 178.04 139.129C178.505 139.197 178.971 139.141 179.438 138.962ZM187.356 133.577L185.816 134.168L187.02 137.305L185.676 137.821L182.827 130.399L184.171 129.883L185.375 133.02L186.943 132.418L188.148 128.356L189.59 127.803L188.146 132.454L192.635 135.149L191.053 135.757L187.356 133.577Z" fill="black"/>
<circle cx="70.2514" cy="136.604" r="2.5" transform="rotate(-21 70.2514 136.604)" fill="black"/>
<path d="M98.4481 120.752L93.4068 122.687L96.716 131.266L95.3296 131.798L91.5668 121.995L97.9945 119.528L98.4481 120.752ZM102.852 120.315C103.571 120.039 104.276 119.95 104.967 120.049C105.659 120.148 106.272 120.421 106.808 120.868C107.354 121.313 107.77 121.908 108.056 122.655C108.343 123.402 108.434 124.127 108.33 124.832C108.231 125.523 107.958 126.137 107.51 126.673C107.062 127.209 106.479 127.615 105.76 127.891C105.228 128.095 104.698 128.18 104.172 128.147C103.654 128.11 103.166 127.955 102.707 127.681L104.18 131.518L102.836 132.034L98.9439 121.895L100.232 121.4L100.684 122.577C100.825 122.051 101.085 121.598 101.463 121.217C101.838 120.827 102.301 120.526 102.852 120.315ZM105.197 126.757C105.673 126.574 106.056 126.304 106.347 125.946C106.644 125.575 106.825 125.152 106.889 124.678C106.959 124.19 106.895 123.69 106.698 123.176C106.501 122.663 106.215 122.253 105.841 121.947C105.472 121.628 105.055 121.435 104.59 121.367C104.134 121.295 103.668 121.351 103.192 121.534C102.725 121.713 102.343 121.988 102.046 122.359C101.755 122.717 101.573 123.135 101.499 123.613C101.435 124.088 101.502 124.582 101.699 125.095C101.896 125.609 102.179 126.025 102.548 126.344C102.913 126.654 103.33 126.847 103.799 126.924C104.264 126.992 104.73 126.936 105.197 126.757ZM111.137 117.134C112.163 116.74 113.044 116.691 113.779 116.987C114.524 117.28 115.088 117.926 115.471 118.925L117.191 123.406L115.917 123.895L115.541 122.915C115.449 123.346 115.229 123.736 114.881 124.084C114.538 124.419 114.082 124.696 113.513 124.915C112.682 125.234 111.937 125.289 111.279 125.081C110.63 124.87 110.18 124.437 109.929 123.784C109.678 123.13 109.716 122.516 110.041 121.941C110.363 121.357 111.043 120.866 112.079 120.468L114.207 119.651L114.105 119.385C113.883 118.806 113.545 118.427 113.09 118.248C112.636 118.069 112.082 118.105 111.429 118.356C110.99 118.524 110.589 118.764 110.226 119.074C109.86 119.376 109.579 119.703 109.382 120.057L108.435 119.264C108.7 118.809 109.068 118.4 109.539 118.037C110.006 117.665 110.539 117.364 111.137 117.134ZM113.339 123.792C113.852 123.595 114.253 123.313 114.54 122.946C114.824 122.569 114.969 122.138 114.976 121.654L114.578 120.617L112.506 121.413C111.367 121.85 110.944 122.451 111.238 123.217C111.381 123.59 111.639 123.829 112.011 123.933C112.383 124.036 112.825 123.989 113.339 123.792ZM126.709 118.403L127.821 121.302L126.561 121.786L125.9 120.063L119.696 122.445L120.357 124.167L119.083 124.656L117.97 121.757L118.362 121.607C118.828 121.396 119.025 120.935 118.956 120.222C118.886 119.51 118.658 118.553 118.271 117.352L117.421 114.802L123.177 112.593L125.574 118.839L126.709 118.403ZM119.541 116.977C119.862 117.925 120.08 118.73 120.196 119.393C120.317 120.043 120.275 120.562 120.071 120.951L124.23 119.355L122.284 114.285L119.063 115.522L119.541 116.977ZM132.122 117.771C131.385 118.054 130.659 118.145 129.946 118.044C129.232 117.943 128.598 117.672 128.043 117.232C127.494 116.779 127.08 116.188 126.801 115.46C126.521 114.731 126.435 114.02 126.544 113.325C126.658 112.617 126.948 111.992 127.414 111.448C127.877 110.896 128.477 110.478 129.214 110.195C129.952 109.912 130.673 109.823 131.377 109.927C132.087 110.019 132.716 110.291 133.265 110.745C133.82 111.185 134.237 111.77 134.517 112.498C134.796 113.226 134.879 113.944 134.765 114.652C134.657 115.347 134.372 115.97 133.909 116.523C133.455 117.072 132.86 117.488 132.122 117.771ZM131.671 116.595C132.147 116.412 132.531 116.141 132.822 115.783C133.118 115.412 133.299 114.99 133.363 114.515C133.424 114.031 133.355 113.533 133.158 113.019C132.961 112.506 132.68 112.094 132.315 111.784C131.946 111.465 131.529 111.272 131.064 111.204C130.608 111.133 130.142 111.189 129.666 111.371C129.19 111.554 128.802 111.826 128.501 112.188C128.21 112.546 128.03 112.969 127.96 113.456C127.896 113.931 127.962 114.425 128.159 114.938C128.356 115.452 128.639 115.868 129.008 116.187C129.383 116.493 129.8 116.686 130.259 116.767C130.724 116.835 131.195 116.777 131.671 116.595ZM141.15 114.306C140.393 114.596 139.654 114.692 138.931 114.595C138.217 114.494 137.583 114.223 137.029 113.783C136.47 113.333 136.051 112.744 135.772 112.016C135.492 111.288 135.411 110.574 135.529 109.876C135.643 109.168 135.933 108.543 136.399 107.999C136.871 107.443 137.485 107.02 138.241 106.73C138.914 106.472 139.563 106.378 140.19 106.448C140.826 106.514 141.387 106.749 141.874 107.151L141.104 108.202C140.735 107.936 140.343 107.782 139.929 107.737C139.516 107.692 139.099 107.75 138.679 107.911C138.194 108.098 137.796 108.374 137.486 108.739C137.186 109.1 137.001 109.525 136.931 110.012C136.867 110.487 136.933 110.981 137.13 111.494C137.331 112.017 137.616 112.438 137.984 112.757C138.359 113.063 138.779 113.25 139.244 113.318C139.719 113.382 140.199 113.321 140.684 113.135C141.104 112.974 141.453 112.738 141.73 112.428C142.008 112.118 142.195 111.741 142.292 111.296L143.562 111.548C143.469 112.173 143.211 112.727 142.786 113.212C142.367 113.683 141.822 114.048 141.15 114.306ZM148.921 104.06L146.204 105.103L148.602 111.349L147.257 111.865L144.86 105.619L142.143 106.662L141.692 105.486L148.469 102.884L148.921 104.06ZM153.752 100.776C154.471 100.5 155.176 100.411 155.867 100.51C156.559 100.609 157.173 100.882 157.709 101.33C158.254 101.774 158.67 102.369 158.957 103.116C159.243 103.863 159.334 104.589 159.23 105.293C159.131 105.984 158.858 106.598 158.41 107.134C157.962 107.67 157.379 108.076 156.66 108.352C156.128 108.556 155.599 108.641 155.072 108.608C154.554 108.571 154.066 108.416 153.607 108.142L155.08 111.979L153.736 112.495L149.844 102.356L151.132 101.862L151.584 103.038C151.725 102.513 151.985 102.059 152.363 101.678C152.738 101.288 153.201 100.987 153.752 100.776ZM156.097 107.218C156.573 107.036 156.956 106.765 157.247 106.407C157.544 106.036 157.725 105.613 157.789 105.139C157.859 104.651 157.795 104.151 157.598 103.638C157.401 103.124 157.115 102.714 156.741 102.408C156.372 102.089 155.955 101.896 155.49 101.828C155.034 101.757 154.568 101.812 154.092 101.995C153.625 102.174 153.243 102.449 152.946 102.82C152.655 103.178 152.473 103.596 152.4 104.075C152.335 104.549 152.402 105.043 152.599 105.557C152.796 106.07 153.079 106.486 153.448 106.805C153.813 107.115 154.23 107.308 154.699 107.386C155.164 107.453 155.63 107.398 156.097 107.218ZM165.545 104.941C164.808 105.224 164.082 105.315 163.369 105.214C162.655 105.113 162.021 104.843 161.466 104.402C160.917 103.949 160.503 103.358 160.224 102.63C159.944 101.902 159.858 101.19 159.967 100.495C160.08 99.7873 160.371 99.1618 160.837 98.6186C161.3 98.066 161.9 97.6482 162.637 97.3651C163.375 97.082 164.096 96.9927 164.8 97.0973C165.51 97.1889 166.139 97.4615 166.688 97.9148C167.243 98.3553 167.66 98.9397 167.94 99.6678C168.219 100.396 168.302 101.114 168.188 101.822C168.08 102.517 167.795 103.141 167.332 103.693C166.878 104.242 166.283 104.658 165.545 104.941ZM165.094 103.765C165.57 103.582 165.954 103.312 166.245 102.954C166.541 102.583 166.722 102.16 166.786 101.685C166.847 101.201 166.778 100.703 166.581 100.189C166.384 99.6758 166.103 99.2642 165.738 98.9545C165.369 98.6355 164.952 98.4421 164.487 98.3743C164.031 98.303 163.565 98.3587 163.089 98.5414C162.613 98.7242 162.224 98.9964 161.924 99.3581C161.633 99.7161 161.453 100.139 161.383 100.626C161.318 101.101 161.385 101.595 161.582 102.108C161.779 102.622 162.062 103.038 162.431 103.357C162.805 103.663 163.222 103.857 163.682 103.937C164.147 104.005 164.618 103.948 165.094 103.765ZM176.605 96.3898C176.644 96.4925 176.687 96.6314 176.733 96.8067L170.711 99.1181C171.046 99.7394 171.533 100.158 172.173 100.373C172.818 100.575 173.505 100.536 174.233 100.257C175.12 99.9162 175.719 99.3433 176.032 98.5379L177.107 99.1212C176.921 99.6424 176.616 100.102 176.191 100.501C175.775 100.897 175.259 101.213 174.643 101.449C173.858 101.75 173.102 101.858 172.373 101.774C171.641 101.68 170.996 101.408 170.437 100.958C169.888 100.505 169.474 99.9143 169.195 99.1861C168.919 98.4672 168.828 97.7574 168.924 97.0568C169.028 96.3525 169.3 95.7342 169.738 95.2018C170.182 94.6564 170.759 94.2475 171.468 93.9752C172.178 93.7028 172.871 93.6243 173.547 93.7396C174.229 93.842 174.835 94.1235 175.365 94.584C175.905 95.041 176.318 95.6429 176.605 96.3898ZM171.904 95.1095C171.26 95.3567 170.793 95.7607 170.505 96.3212C170.226 96.8781 170.171 97.4884 170.34 98.1519L175.101 96.3242C174.787 95.7274 174.335 95.3171 173.745 95.0935C173.162 94.8569 172.548 94.8622 171.904 95.1095ZM177.25 91.8362L178.594 91.3202L179.804 94.471L184.033 92.8476L182.823 89.6968L184.168 89.1807L187.017 96.6027L185.672 97.1187L184.479 94.0099L180.25 95.6333L181.443 98.7421L180.099 99.2582L177.25 91.8362ZM186.782 88.1773L188.126 87.6613L190.201 93.0667L192.677 85.9142L193.895 85.4465L196.744 92.8685L195.4 93.3846L193.325 87.9791L190.863 95.1262L189.631 95.5993L186.782 88.1773ZM201.035 87.6227L199.494 88.214L200.698 91.3508L199.354 91.8669L196.505 84.4449L197.849 83.9288L199.053 87.0657L200.622 86.4636L201.826 82.4022L203.269 81.8485L201.825 86.4999L206.314 89.1952L204.731 89.8027L201.035 87.6227Z" fill="black"/>
<rect x="399.696" y="0.651161" width="221" height="341" rx="24.5" transform="rotate(22.0552 399.696 0.651161)" fill="url(#paint1_linear_8_135)" stroke="black"/>
<circle cx="341.145" cy="265.01" r="2.5" transform="rotate(22.0552 341.145 265.01)" fill="black"/>
<path d="M375.007 272.256L371.065 281.987L369.674 281.424L371.432 277.087L365.843 274.822L364.086 279.16L362.695 278.597L366.638 268.865L368.028 269.428L366.333 273.613L371.922 275.877L373.617 271.693L375.007 272.256ZM379.363 275.428L376.026 274.077L376.516 272.867L384.566 276.128L384.076 277.338L380.739 275.986L377.286 284.508L375.91 283.95L379.363 275.428ZM387.658 278.789L384.321 277.437L384.811 276.228L392.861 279.489L392.371 280.699L389.034 279.347L385.582 287.869L384.205 287.311L387.658 278.789ZM398.17 281.64C399.431 282.151 400.301 282.854 400.779 283.749C401.258 284.644 401.284 285.62 400.856 286.677C400.427 287.734 399.73 288.417 398.763 288.726C397.796 289.036 396.682 288.935 395.422 288.424L393.017 287.45L391.823 290.397L390.432 289.834L394.375 280.102L398.17 281.64ZM395.87 287.198C396.751 287.555 397.498 287.642 398.111 287.459C398.729 287.266 399.18 286.818 399.465 286.114C399.751 285.409 399.737 284.778 399.424 284.219C399.114 283.652 398.519 283.189 397.639 282.833L395.275 281.875L393.507 286.241L395.87 287.198ZM407.295 283.039L408.504 283.529L398.611 294.766L397.401 294.276L407.295 283.039ZM417.013 289.274L413.07 299.006L411.68 298.443L413.438 294.105L407.849 291.841L406.091 296.178L404.701 295.615L408.644 285.883L410.034 286.447L408.339 290.631L413.928 292.896L415.623 288.711L417.013 289.274ZM421.368 292.447L418.032 291.095L418.522 289.885L426.571 293.147L426.081 294.356L422.745 293.004L419.292 301.527L417.916 300.969L421.368 292.447ZM429.664 295.808L426.327 294.456L426.817 293.246L434.867 296.507L434.377 297.717L431.04 296.365L427.587 304.887L426.211 304.33L429.664 295.808ZM440.176 298.659C441.437 299.169 442.306 299.872 442.785 300.768C443.264 301.663 443.289 302.639 442.861 303.695C442.433 304.752 441.736 305.435 440.769 305.745C439.802 306.054 438.688 305.954 437.427 305.443L435.022 304.469L433.828 307.416L432.438 306.853L436.381 297.121L440.176 298.659ZM437.876 304.217C438.756 304.573 439.503 304.66 440.117 304.477C440.734 304.285 441.186 303.837 441.471 303.132C441.756 302.428 441.742 301.796 441.429 301.238C441.12 300.67 440.525 300.208 439.644 299.851L437.281 298.894L435.512 303.259L437.876 304.217ZM445.262 312.178C444.53 311.881 443.866 311.483 443.27 310.982C442.687 310.476 442.275 309.964 442.032 309.445L442.986 308.569C443.221 309.053 443.583 309.518 444.071 309.964C444.573 310.404 445.129 310.748 445.741 310.996C446.547 311.323 447.204 311.432 447.711 311.325C448.223 311.208 448.57 310.923 448.754 310.469C448.889 310.135 448.887 309.821 448.747 309.527C448.62 309.228 448.417 308.957 448.138 308.714C447.868 308.475 447.469 308.168 446.942 307.792C446.281 307.32 445.759 306.903 445.376 306.543C445.003 306.187 444.727 305.762 444.549 305.269C444.384 304.771 444.427 304.211 444.679 303.59C444.889 303.071 445.213 302.658 445.651 302.35C446.098 302.045 446.65 301.88 447.308 301.855C447.965 301.831 448.706 301.985 449.531 302.319C450.106 302.552 450.641 302.855 451.137 303.229C451.633 303.603 452.024 304.009 452.31 304.449L451.401 305.375C451.098 304.95 450.741 304.579 450.33 304.262C449.923 303.935 449.497 303.681 449.053 303.501C448.265 303.182 447.613 303.085 447.098 303.211C446.593 303.341 446.248 303.633 446.064 304.087C445.929 304.42 445.929 304.739 446.065 305.042C446.205 305.336 446.413 305.609 446.688 305.861C446.977 306.107 447.378 306.41 447.89 306.769C448.551 307.242 449.068 307.656 449.442 308.012C449.816 308.369 450.087 308.792 450.255 309.281C450.433 309.774 450.398 310.326 450.15 310.938C449.944 311.447 449.615 311.859 449.165 312.173C448.717 312.477 448.161 312.64 447.494 312.661C446.831 312.673 446.087 312.512 445.262 312.178Z" fill="black"/>
<circle cx="355.414" cy="229.791" r="2.5" transform="rotate(22.0552 355.414 229.791)" fill="black"/>
<path d="M383.471 246.013L382.582 242.174C382.315 242.087 382.108 242.014 381.959 241.954L379.554 240.979L378.355 243.941L376.964 243.377L380.907 233.646L384.702 235.183C385.963 235.694 386.833 236.397 387.311 237.292C387.79 238.188 387.816 239.164 387.388 240.22C387.084 240.971 386.639 241.535 386.054 241.913C385.47 242.292 384.785 242.462 384.002 242.425L384.986 246.627L383.471 246.013ZM382.397 240.755C383.277 241.112 384.026 241.194 384.643 241.002C385.261 240.81 385.712 240.361 385.997 239.657C386.283 238.953 386.269 238.321 385.956 237.763C385.646 237.195 385.051 236.733 384.171 236.376L381.807 235.418L380.033 239.798L382.397 240.755ZM395.006 246.446C394.964 246.548 394.901 246.679 394.814 246.838L388.836 244.416C388.657 245.099 388.728 245.737 389.048 246.331C389.382 246.919 389.91 247.36 390.633 247.653C391.513 248.009 392.342 248 393.12 247.625L393.508 248.785C393.016 249.039 392.479 249.167 391.896 249.168C391.322 249.173 390.73 249.051 390.118 248.804C389.339 248.488 388.713 248.051 388.238 247.492C387.767 246.923 387.481 246.284 387.38 245.574C387.289 244.868 387.389 244.154 387.682 243.431C387.971 242.717 388.39 242.137 388.938 241.69C389.495 241.247 390.115 240.98 390.799 240.89C391.496 240.795 392.197 240.89 392.901 241.175C393.605 241.461 394.165 241.876 394.581 242.422C395.009 242.963 395.26 243.582 395.333 244.281C395.415 244.983 395.306 245.705 395.006 246.446ZM392.445 242.301C391.805 242.042 391.189 242.019 390.595 242.232C390.011 242.449 389.555 242.857 389.225 243.457L393.952 245.372C394.129 244.721 394.079 244.113 393.801 243.547C393.536 242.976 393.084 242.561 392.445 242.301ZM397.463 251.779C396.86 251.535 396.313 251.222 395.82 250.839C395.332 250.447 394.981 250.062 394.767 249.684L395.751 248.852C395.982 249.216 396.301 249.561 396.708 249.887C397.115 250.214 397.555 250.473 398.027 250.665C399.195 251.138 399.914 251.041 400.185 250.373C400.275 250.151 400.267 249.943 400.162 249.749C400.057 249.556 399.896 249.382 399.677 249.229C399.472 249.07 399.166 248.866 398.761 248.615C398.205 248.282 397.762 247.978 397.43 247.704C397.109 247.433 396.871 247.1 396.719 246.704C396.567 246.307 396.596 245.85 396.806 245.331C397.076 244.663 397.57 244.243 398.288 244.07C399.009 243.887 399.838 243.986 400.774 244.365C401.265 244.564 401.732 244.823 402.174 245.143C402.617 245.462 402.954 245.788 403.187 246.119L402.189 246.945C401.744 246.312 401.114 245.83 400.298 245.499C399.733 245.27 399.264 245.188 398.893 245.254C398.521 245.319 398.273 245.504 398.149 245.81C398.051 246.051 398.058 246.275 398.168 246.482C398.279 246.688 398.442 246.873 398.656 247.035C398.88 247.202 399.198 247.417 399.609 247.68C400.161 248.022 400.593 248.327 400.906 248.594C401.231 248.855 401.467 249.178 401.614 249.561C401.761 249.944 401.733 250.386 401.53 250.886C401.26 251.554 400.757 251.97 400.021 252.136C399.298 252.296 398.445 252.177 397.463 251.779ZM406.665 254.909C406.403 254.997 406.11 255.029 405.785 255.005C405.464 254.972 405.15 254.894 404.844 254.77C404.103 254.47 403.609 254.037 403.363 253.474C403.116 252.91 403.143 252.257 403.444 251.516L405.083 247.47L403.832 246.963L404.277 245.865L405.528 246.372L406.181 244.759L407.516 245.3L406.862 246.913L408.976 247.769L408.531 248.867L406.417 248.011L404.801 252.001C404.639 252.4 404.613 252.745 404.721 253.037C404.839 253.333 405.083 253.556 405.454 253.706C405.861 253.871 406.256 253.896 406.637 253.781L406.665 254.909ZM419.219 257.664L414.047 255.569L411.991 257.568L410.559 256.988L418.909 249.042L420.285 249.6L420.763 261.122L419.303 260.531L419.219 257.664ZM419.183 256.355L419.015 250.736L414.984 254.654L419.183 256.355ZM429.953 253.516C431.213 254.027 432.083 254.73 432.562 255.625C433.041 256.521 433.066 257.497 432.638 258.553C432.21 259.61 431.513 260.293 430.546 260.603C429.579 260.912 428.465 260.812 427.204 260.301L424.799 259.326L423.605 262.274L422.215 261.71L426.158 251.979L429.953 253.516ZM427.653 259.074C428.533 259.431 429.28 259.518 429.894 259.335C430.511 259.143 430.963 258.694 431.248 257.99C431.533 257.286 431.519 256.654 431.206 256.096C430.897 255.528 430.302 255.066 429.421 254.709L427.058 253.752L425.289 258.117L427.653 259.074ZM436.055 255.989L437.445 256.552L433.502 266.284L432.112 265.72L436.055 255.989Z" fill="black"/>
<circle cx="369.683" cy="194.572" r="2.5" transform="rotate(22.0552 369.683 194.572)" fill="black"/>
<path d="M395.581 210.049C394.599 209.651 393.8 209.079 393.185 208.334C392.574 207.579 392.195 206.73 392.049 205.786C391.912 204.845 392.033 203.907 392.412 202.971C392.792 202.035 393.358 201.277 394.11 200.697C394.872 200.121 395.734 199.78 396.694 199.673C397.659 199.556 398.632 199.697 399.614 200.095C400.588 200.489 401.38 201.064 401.991 201.819C402.606 202.564 402.982 203.407 403.119 204.347C403.26 205.278 403.139 206.216 402.756 207.162C402.373 208.107 401.805 208.87 401.052 209.449C400.303 210.02 399.446 210.363 398.482 210.48C397.521 210.587 396.555 210.443 395.581 210.049ZM396.083 208.812C396.796 209.101 397.502 209.198 398.198 209.103C398.904 209.011 399.534 208.748 400.088 208.314C400.654 207.875 401.08 207.303 401.365 206.599C401.651 205.894 401.741 205.192 401.637 204.491C401.545 203.785 401.278 203.153 400.834 202.596C400.4 202.043 399.827 201.622 399.113 201.332C398.399 201.043 397.685 200.943 396.97 201.03C396.264 201.122 395.627 201.388 395.061 201.827C394.507 202.261 394.088 202.83 393.803 203.534C393.517 204.239 393.42 204.944 393.512 205.65C393.616 206.351 393.89 206.98 394.334 207.537C394.786 208.098 395.369 208.523 396.083 208.812ZM405.7 214.149C404.968 213.852 404.304 213.454 403.708 212.953C403.126 212.448 402.713 211.935 402.47 211.416L403.424 210.54C403.659 211.024 404.021 211.489 404.509 211.935C405.011 212.375 405.567 212.719 406.179 212.967C406.985 213.294 407.642 213.403 408.15 213.296C408.661 213.18 409.008 212.894 409.192 212.44C409.328 212.106 409.325 211.793 409.185 211.499C409.059 211.199 408.856 210.928 408.576 210.685C408.306 210.446 407.907 210.139 407.38 209.764C406.719 209.291 406.197 208.874 405.814 208.514C405.441 208.158 405.165 207.733 404.987 207.24C404.822 206.742 404.866 206.182 405.117 205.561C405.327 205.042 405.651 204.629 406.089 204.321C406.536 204.016 407.088 203.852 407.746 203.827C408.403 203.802 409.145 203.956 409.969 204.29C410.544 204.523 411.079 204.826 411.575 205.2C412.071 205.574 412.462 205.98 412.748 206.42L411.839 207.346C411.536 206.921 411.179 206.55 410.769 206.233C410.362 205.906 409.936 205.652 409.491 205.472C408.703 205.153 408.051 205.056 407.537 205.182C407.031 205.312 406.686 205.604 406.502 206.058C406.367 206.391 406.367 206.71 406.503 207.013C406.643 207.307 406.851 207.58 407.126 207.832C407.415 208.078 407.816 208.381 408.329 208.74C408.989 209.213 409.507 209.627 409.88 209.984C410.254 210.34 410.525 210.763 410.693 211.252C410.871 211.745 410.836 212.297 410.589 212.909C410.382 213.418 410.053 213.83 409.603 214.144C409.156 214.448 408.599 214.611 407.932 214.632C407.269 214.644 406.525 214.483 405.7 214.149ZM415.487 206.655L416.877 207.218L412.934 216.95L411.544 216.387L415.487 206.655Z" fill="black"/>
<circle cx="383.952" cy="159.353" r="2.5" transform="rotate(22.0552 383.952 159.353)" fill="black"/>
<path d="M417.814 166.598L413.872 176.33L412.481 175.766L414.239 171.429L408.65 169.165L406.893 173.502L405.502 172.939L409.445 163.207L410.835 163.77L409.14 167.955L414.729 170.219L416.424 166.035L417.814 166.598ZM422.17 169.771L418.833 168.419L419.323 167.209L427.373 170.47L426.882 171.68L423.546 170.328L420.093 178.85L418.717 178.293L422.17 169.771ZM433.967 184.471L436.825 177.375L430.914 181.859L430.275 181.6L429.134 174.308L426.279 181.356L424.944 180.816L428.887 171.084L430.027 171.546L431.315 180.03L438.09 174.813L439.23 175.274L435.301 185.012L433.967 184.471ZM442.165 176.463L443.555 177.027L440.102 185.549L445.371 187.683L444.881 188.893L438.222 186.195L442.165 176.463Z" fill="black"/>
<circle cx="398.221" cy="124.133" r="2.5" transform="rotate(22.0552 398.221 124.133)" fill="black"/>
<path d="M424.078 139.594C423.105 139.199 422.31 138.63 421.695 137.884C421.093 137.133 420.722 136.292 420.581 135.361C420.444 134.421 420.567 133.478 420.95 132.533C421.333 131.587 421.899 130.829 422.648 130.259C423.401 129.679 424.258 129.336 425.218 129.229C426.183 129.112 427.151 129.251 428.124 129.645C428.884 129.953 429.527 130.365 430.052 130.879C430.581 131.385 430.966 131.978 431.209 132.659L429.95 133.169C429.529 132.103 428.772 131.348 427.679 130.905C426.956 130.612 426.237 130.51 425.521 130.598C424.806 130.685 424.165 130.949 423.599 131.388C423.045 131.822 422.626 132.392 422.34 133.096C422.055 133.8 421.958 134.506 422.05 135.212C422.154 135.912 422.433 136.543 422.885 137.104C423.338 137.665 423.926 138.092 424.648 138.385C425.733 138.824 426.803 138.805 427.86 138.326L428.409 139.568C427.762 139.889 427.065 140.049 426.321 140.049C425.585 140.054 424.838 139.902 424.078 139.594ZM432.568 143.034C431.836 142.737 431.172 142.339 430.576 141.838C429.994 141.332 429.581 140.82 429.338 140.301L430.292 139.425C430.527 139.909 430.889 140.374 431.377 140.82C431.879 141.26 432.435 141.604 433.047 141.852C433.853 142.179 434.51 142.288 435.018 142.181C435.529 142.064 435.876 141.779 436.06 141.325C436.196 140.991 436.193 140.677 436.053 140.383C435.927 140.084 435.724 139.813 435.444 139.57C435.174 139.331 434.775 139.024 434.248 138.648C433.587 138.176 433.065 137.759 432.682 137.399C432.309 137.043 432.033 136.618 431.855 136.125C431.69 135.627 431.733 135.067 431.985 134.446C432.195 133.927 432.519 133.514 432.957 133.206C433.404 132.901 433.956 132.736 434.614 132.711C435.271 132.687 436.013 132.841 436.837 133.175C437.412 133.408 437.947 133.711 438.443 134.085C438.939 134.459 439.33 134.865 439.616 135.305L438.707 136.231C438.404 135.806 438.047 135.435 437.637 135.118C437.229 134.791 436.804 134.537 436.359 134.357C435.571 134.038 434.919 133.941 434.405 134.067C433.899 134.197 433.554 134.489 433.37 134.943C433.235 135.276 433.235 135.595 433.371 135.898C433.511 136.192 433.719 136.465 433.994 136.717C434.283 136.963 434.684 137.266 435.197 137.625C435.857 138.098 436.375 138.512 436.748 138.868C437.122 139.225 437.393 139.647 437.561 140.137C437.739 140.63 437.704 141.182 437.457 141.794C437.25 142.303 436.921 142.715 436.471 143.029C436.024 143.333 435.467 143.496 434.8 143.517C434.137 143.529 433.393 143.368 432.568 143.034ZM441.203 146.532C440.471 146.235 439.807 145.837 439.211 145.337C438.628 144.831 438.216 144.318 437.973 143.799L438.926 142.923C439.162 143.407 439.524 143.872 440.012 144.318C440.513 144.758 441.07 145.102 441.682 145.35C442.488 145.677 443.145 145.787 443.652 145.679C444.163 145.563 444.511 145.277 444.695 144.823C444.83 144.49 444.828 144.176 444.688 143.882C444.561 143.582 444.358 143.311 444.079 143.068C443.809 142.83 443.41 142.522 442.882 142.147C442.222 141.674 441.7 141.258 441.317 140.897C440.943 140.541 440.668 140.117 440.49 139.624C440.325 139.125 440.368 138.566 440.62 137.945C440.83 137.426 441.154 137.012 441.592 136.704C442.039 136.399 442.591 136.235 443.249 136.21C443.906 136.185 444.647 136.339 445.472 136.674C446.047 136.906 446.582 137.21 447.078 137.583C447.574 137.957 447.965 138.363 448.251 138.803L447.342 139.729C447.039 139.304 446.682 138.933 446.271 138.616C445.864 138.289 445.438 138.036 444.993 137.855C444.206 137.536 443.554 137.44 443.039 137.565C442.534 137.695 442.189 137.987 442.005 138.441C441.87 138.775 441.87 139.093 442.006 139.396C442.146 139.69 442.354 139.963 442.629 140.215C442.918 140.462 443.318 140.764 443.831 141.123C444.492 141.596 445.009 142.01 445.383 142.367C445.756 142.723 446.027 143.146 446.196 143.635C446.374 144.128 446.339 144.68 446.091 145.292C445.885 145.802 445.556 146.213 445.105 146.527C444.658 146.831 444.101 146.994 443.435 147.015C442.772 147.027 442.028 146.866 441.203 146.532Z" fill="black"/>
<circle cx="412.49" cy="88.914" r="2.5" transform="rotate(22.0552 412.49 88.914)" fill="black"/>
<path d="M437.983 92.7687L439.373 93.3319L435.431 103.064L434.04 102.5L437.983 92.7687ZM446.082 96.05C447.343 96.5607 448.212 97.2637 448.691 98.159C449.17 99.0543 449.195 100.03 448.767 101.087C448.339 102.143 447.642 102.826 446.675 103.136C445.708 103.446 444.594 103.345 443.333 102.834L440.928 101.86L439.734 104.807L438.344 104.244L442.287 94.5123L446.082 96.05ZM443.782 101.608C444.662 101.965 445.409 102.052 446.023 101.869C446.64 101.676 447.092 101.228 447.377 100.524C447.662 99.8192 447.649 99.1878 447.335 98.6293C447.026 98.0616 446.431 97.5993 445.55 97.2426L443.187 96.2851L441.418 100.65L443.782 101.608Z" fill="black"/>
<rect x="182.335" y="3.83071" width="221" height="341" rx="24.5" transform="rotate(6.23702 182.335 3.83071)" fill="url(#paint2_linear_8_135)" stroke="black"/>
<circle cx="198.062" cy="274.139" r="2.5" transform="rotate(6.23702 198.062 274.139)" fill="black"/>
<path d="M226.699 277.148L224.522 276.91L224.02 281.503L222.559 281.343L223.7 270.905L225.161 271.065L224.666 275.598L226.873 275.839L230.648 271.665L232.244 271.839L227.964 276.487L231.282 282.297L229.582 282.111L226.699 277.148ZM235.845 282.886C235.06 282.8 234.373 282.549 233.785 282.133C233.197 281.716 232.757 281.185 232.465 280.54C232.184 279.885 232.087 279.17 232.171 278.395C232.256 277.62 232.505 276.948 232.92 276.379C233.345 275.802 233.889 275.379 234.552 275.109C235.217 274.83 235.941 274.733 236.727 274.819C237.512 274.905 238.194 275.155 238.772 275.571C239.362 275.977 239.796 276.507 240.077 277.162C240.369 277.807 240.472 278.518 240.387 279.293C240.303 280.068 240.048 280.745 239.622 281.322C239.208 281.89 238.669 282.314 238.005 282.594C237.35 282.874 236.63 282.972 235.845 282.886ZM235.982 281.633C236.489 281.689 236.954 281.624 237.376 281.439C237.81 281.245 238.164 280.951 238.438 280.559C238.714 280.156 238.881 279.682 238.941 279.135C239.001 278.588 238.939 278.094 238.756 277.651C238.574 277.199 238.292 276.836 237.909 276.563C237.537 276.291 237.097 276.127 236.59 276.071C236.083 276.016 235.613 276.08 235.181 276.264C234.758 276.45 234.404 276.743 234.119 277.144C233.844 277.537 233.677 278.006 233.618 278.553C233.558 279.1 233.619 279.6 233.801 280.052C233.994 280.496 234.276 280.858 234.648 281.14C235.03 281.414 235.475 281.578 235.982 281.633ZM250.208 276.368L249.344 284.271L247.912 284.114L248.639 277.464L244.181 276.976L243.454 283.627L242.023 283.47L242.886 275.567L250.208 276.368ZM256.337 279.754C257.34 279.873 258.081 280.186 258.559 280.69C259.037 281.195 259.231 281.855 259.142 282.671C259.049 283.525 258.688 284.155 258.061 284.559C257.444 284.955 256.604 285.089 255.542 284.963L252.114 284.573L252.978 276.67L254.409 276.827L254.117 279.496L256.337 279.754ZM255.541 283.861C256.187 283.942 256.688 283.866 257.045 283.633C257.412 283.402 257.625 283.023 257.682 282.496C257.739 281.979 257.616 281.583 257.314 281.309C257.022 281.036 256.544 280.858 255.879 280.775L254.003 280.54L253.664 283.641L255.541 283.861ZM268.26 282.384C268.248 282.494 268.222 282.637 268.183 282.814L261.771 282.113C261.785 282.819 262.026 283.413 262.497 283.897C262.978 284.372 263.606 284.652 264.382 284.737C265.326 284.84 266.121 284.605 266.767 284.032L267.457 285.043C267.053 285.421 266.571 285.691 266.01 285.851C265.459 286.012 264.856 286.056 264.2 285.985C263.365 285.893 262.643 285.643 262.034 285.235C261.425 284.816 260.976 284.279 260.686 283.624C260.405 282.97 260.307 282.255 260.392 281.479C260.476 280.714 260.72 280.041 261.125 279.462C261.541 278.884 262.065 278.458 262.698 278.185C263.343 277.904 264.043 277.804 264.798 277.887C265.554 277.969 266.206 278.217 266.754 278.629C267.314 279.032 267.724 279.559 267.985 280.212C268.255 280.865 268.347 281.589 268.26 282.384ZM264.666 279.095C263.98 279.02 263.381 279.165 262.868 279.532C262.365 279.899 262.037 280.417 261.884 281.084L266.953 281.638C266.947 280.963 266.733 280.392 266.311 279.923C265.9 279.446 265.352 279.17 264.666 279.095ZM263.542 276.406C263.333 276.384 263.162 276.295 263.028 276.139C262.895 275.974 262.84 275.782 262.864 275.563C262.888 275.344 262.983 275.168 263.148 275.036C263.314 274.903 263.501 274.848 263.71 274.871C263.918 274.893 264.089 274.988 264.222 275.153C264.355 275.318 264.409 275.51 264.385 275.729C264.361 275.948 264.267 276.124 264.101 276.256C263.937 276.379 263.75 276.429 263.542 276.406ZM266.315 276.71C266.106 276.687 265.935 276.598 265.801 276.442C265.668 276.277 265.614 276.085 265.638 275.866C265.662 275.647 265.756 275.472 265.922 275.339C266.087 275.206 266.274 275.151 266.483 275.174C266.692 275.197 266.863 275.291 266.995 275.456C267.128 275.621 267.183 275.814 267.159 276.032C267.135 276.251 267.04 276.427 266.875 276.559C266.71 276.682 266.524 276.732 266.315 276.71Z" fill="black"/>
<circle cx="202.19" cy="236.364" r="2.5" transform="rotate(6.23702 202.19 236.364)" fill="black"/>
<path d="M231.342 244.198C230.298 244.083 229.378 243.752 228.583 243.202C227.8 242.644 227.213 241.936 226.824 241.078C226.436 240.211 226.297 239.27 226.408 238.256C226.519 237.242 226.857 236.359 227.422 235.606C227.988 234.843 228.719 234.279 229.614 233.914C230.51 233.539 231.48 233.409 232.523 233.523C233.339 233.612 234.069 233.832 234.714 234.185C235.361 234.527 235.894 234.993 236.312 235.582L235.24 236.415C234.545 235.504 233.611 234.985 232.438 234.856C231.663 234.772 230.943 234.869 230.278 235.148C229.614 235.428 229.069 235.856 228.644 236.434C228.23 237.002 227.982 237.664 227.899 238.419C227.816 239.175 227.915 239.88 228.196 240.534C228.488 241.18 228.928 241.711 229.516 242.127C230.104 242.543 230.786 242.794 231.561 242.879C232.724 243.006 233.749 242.695 234.636 241.947L235.502 242.992C234.966 243.477 234.34 243.821 233.624 244.024C232.918 244.229 232.157 244.287 231.342 244.198ZM244.386 241.549C244.374 241.658 244.349 241.801 244.309 241.978L237.897 241.278C237.911 241.983 238.153 242.578 238.623 243.062C239.104 243.537 239.732 243.817 240.508 243.902C241.452 244.005 242.247 243.77 242.893 243.197L243.583 244.208C243.179 244.586 242.697 244.855 242.136 245.015C241.586 245.176 240.982 245.221 240.326 245.149C239.491 245.058 238.769 244.808 238.16 244.399C237.552 243.981 237.102 243.444 236.812 242.789C236.531 242.134 236.433 241.419 236.518 240.644C236.602 239.878 236.846 239.206 237.252 238.627C237.667 238.048 238.191 237.623 238.825 237.35C239.469 237.068 240.169 236.969 240.924 237.051C241.68 237.134 242.332 237.381 242.88 237.793C243.44 238.196 243.85 238.724 244.111 239.376C244.381 240.03 244.473 240.754 244.386 241.549ZM240.792 238.259C240.107 238.184 239.507 238.33 238.994 238.696C238.491 239.064 238.163 239.581 238.01 240.249L243.08 240.803C243.073 240.128 242.859 239.556 242.437 239.088C242.027 238.61 241.478 238.334 240.792 238.259ZM252.462 239.655L249.569 239.339L248.842 245.989L247.411 245.833L248.138 239.183L245.245 238.866L245.382 237.614L252.599 238.403L252.462 239.655ZM257.422 241.646C258.425 241.766 259.166 242.078 259.644 242.583C260.122 243.088 260.316 243.748 260.227 244.563C260.134 245.418 259.773 246.047 259.146 246.452C258.529 246.847 257.689 246.981 256.627 246.855L253.199 246.466L254.062 238.563L255.494 238.719L255.202 241.388L257.422 241.646ZM256.626 245.754C257.271 245.834 257.773 245.758 258.13 245.526C258.497 245.294 258.71 244.915 258.767 244.388C258.824 243.871 258.701 243.476 258.399 243.201C258.107 242.928 257.629 242.75 256.964 242.667L255.088 242.432L254.749 245.534L256.626 245.754Z" fill="black"/>
<circle cx="206.319" cy="198.589" r="2.5" transform="rotate(6.23702 206.319 198.589)" fill="black"/>
<path d="M231.957 195.355L239.83 196.216L239.691 197.483L233.294 196.784L232.968 199.766L236.219 200.122C237.462 200.257 238.378 200.619 238.967 201.207C239.557 201.794 239.799 202.575 239.692 203.549C239.58 204.573 239.142 205.32 238.376 205.789C237.62 206.26 236.591 206.424 235.289 206.282L230.816 205.793L231.957 195.355ZM235.358 205.098C236.213 205.191 236.882 205.098 237.365 204.819C237.849 204.54 238.125 204.082 238.195 203.446C238.333 202.183 237.527 201.457 235.777 201.265L232.84 200.944L232.421 204.776L235.358 205.098ZM242.348 199.056L243.779 199.213L243.15 204.968L248.625 199.742L249.923 199.884L249.059 207.787L247.627 207.63L248.257 201.875L242.796 207.102L241.484 206.959L242.348 199.056ZM258.454 202.084L255.561 201.768L254.835 208.418L253.403 208.262L254.13 201.611L251.237 201.295L251.374 200.043L258.591 200.831L258.454 202.084Z" fill="black"/>
<circle cx="210.447" cy="160.814" r="2.5" transform="rotate(6.23702 210.447 160.814)" fill="black"/>
<path d="M244.622 169.076L245.438 161.469L240.973 167.394L240.287 167.319L237.202 160.614L236.376 168.174L234.944 168.018L236.085 157.58L237.308 157.714L240.86 165.526L245.956 158.659L247.179 158.793L246.053 169.232L244.622 169.076ZM256.98 162.429L252.198 170.703C251.772 171.472 251.312 171.995 250.819 172.273C250.336 172.552 249.776 172.657 249.14 172.587C248.753 172.545 248.382 172.439 248.028 172.27C247.683 172.111 247.405 171.9 247.192 171.635L247.921 170.628C248.286 171.061 248.737 171.306 249.274 171.365C249.622 171.403 249.92 171.34 250.17 171.176C250.428 171.023 250.676 170.733 250.914 170.307L251.227 169.783L248.6 161.513L250.091 161.676L252.159 168.3L255.579 162.276L256.98 162.429ZM262.122 166.824C262.634 167.02 263.017 167.289 263.272 167.628C263.526 167.968 263.628 168.366 263.578 168.824C263.527 169.291 263.323 169.691 262.964 170.024C262.607 170.347 262.134 170.582 261.544 170.729C260.966 170.867 260.329 170.898 259.633 170.822C259.047 170.758 258.478 170.62 257.928 170.409C257.388 170.189 256.916 169.911 256.51 169.575L257.061 168.534C257.413 168.814 257.825 169.05 258.297 169.242C258.77 169.425 259.255 169.543 259.752 169.598C260.428 169.671 260.977 169.616 261.4 169.431C261.833 169.237 262.072 168.941 262.115 168.543C262.155 168.175 262.022 167.874 261.716 167.639C261.42 167.406 260.978 167.257 260.392 167.193L258.945 167.035L259.058 166.006L260.4 166.153C260.937 166.211 261.369 166.163 261.698 166.008C262.027 165.853 262.209 165.611 262.245 165.283C262.284 164.925 262.131 164.627 261.785 164.388C261.449 164.15 260.972 163.997 260.356 163.93C259.571 163.844 258.718 163.957 257.799 164.269L257.532 163.123C258.55 162.741 259.585 162.608 260.639 162.723C261.275 162.793 261.837 162.945 262.324 163.179C262.812 163.413 263.182 163.71 263.434 164.07C263.687 164.429 263.79 164.818 263.744 165.235C263.702 165.623 263.535 165.957 263.243 166.237C262.95 166.517 262.577 166.712 262.122 166.824ZM269.638 166.528C270.631 166.647 271.366 166.959 271.844 167.464C272.322 167.969 272.517 168.629 272.428 169.444C272.334 170.299 271.974 170.928 271.346 171.332C270.729 171.728 269.89 171.862 268.827 171.736L265.504 171.358L266.367 163.455L267.799 163.611L267.507 166.28L269.638 166.528ZM274.181 164.309L275.612 164.465L274.749 172.368L273.317 172.212L274.181 164.309ZM268.842 170.636C269.487 170.717 269.988 170.641 270.346 170.408C270.713 170.177 270.925 169.798 270.983 169.271C271.039 168.754 270.917 168.358 270.615 168.084C270.313 167.809 269.834 167.631 269.179 167.55L267.393 167.324L267.054 170.426L268.842 170.636ZM280.968 169.668L279.328 169.489L278.963 172.829L277.532 172.672L278.395 164.769L279.827 164.926L279.462 168.266L281.132 168.448L284.062 165.389L285.598 165.557L282.185 169.031L284.943 173.482L283.258 173.298L280.968 169.668ZM289.988 165.961C291.081 166.08 291.887 166.44 292.405 167.04C292.933 167.641 293.139 168.473 293.022 169.537L292.501 174.308L291.144 174.16L291.258 173.116C290.979 173.458 290.605 173.704 290.136 173.854C289.678 173.995 289.146 174.032 288.54 173.966C287.655 173.869 286.968 173.578 286.477 173.092C285.997 172.607 285.795 172.016 285.871 171.32C285.947 170.625 286.262 170.096 286.814 169.733C287.368 169.361 288.197 169.236 289.3 169.356L291.567 169.604L291.597 169.321C291.665 168.704 291.538 168.213 291.215 167.845C290.893 167.478 290.385 167.257 289.689 167.181C289.221 167.13 288.755 167.159 288.291 167.269C287.827 167.369 287.427 167.532 287.091 167.757L286.612 166.618C287.055 166.334 287.569 166.139 288.154 166.032C288.741 165.915 289.352 165.891 289.988 165.961ZM288.899 172.889C289.446 172.948 289.931 172.881 290.355 172.686C290.779 172.48 291.106 172.164 291.333 171.736L291.454 170.633L289.247 170.392C288.034 170.259 287.383 170.6 287.294 171.416C287.251 171.813 287.371 172.143 287.654 172.405C287.937 172.668 288.352 172.829 288.899 172.889Z" fill="black"/>
<circle cx="214.575" cy="123.039" r="2.5" transform="rotate(6.23702 214.575 123.039)" fill="black"/>
<path d="M243.727 130.872C242.683 130.758 241.764 130.426 240.969 129.877C240.185 129.318 239.598 128.61 239.209 127.753C238.821 126.886 238.682 125.945 238.793 124.931C238.904 123.917 239.242 123.034 239.807 122.281C240.373 121.518 241.104 120.954 241.999 120.589C242.895 120.214 243.865 120.083 244.909 120.198C245.724 120.287 246.454 120.507 247.1 120.859C247.746 121.202 248.279 121.667 248.697 122.256L247.625 123.09C246.93 122.179 245.996 121.659 244.823 121.531C244.048 121.446 243.328 121.544 242.664 121.823C241.999 122.103 241.455 122.531 241.029 123.108C240.615 123.677 240.367 124.339 240.284 125.094C240.202 125.85 240.301 126.555 240.581 127.209C240.873 127.854 241.313 128.385 241.901 128.802C242.489 129.218 243.171 129.469 243.946 129.553C245.11 129.68 246.134 129.37 247.021 128.622L247.887 129.667C247.352 130.152 246.725 130.496 246.009 130.699C245.303 130.904 244.542 130.961 243.727 130.872ZM252.974 128.382L251.333 128.203L250.968 131.543L249.537 131.387L250.401 123.484L251.832 123.64L251.467 126.98L253.137 127.163L256.067 124.103L257.603 124.271L254.19 127.746L256.948 132.197L255.263 132.012L252.974 128.382ZM261.562 132.791C260.776 132.705 260.09 132.454 259.501 132.038C258.913 131.622 258.473 131.091 258.182 130.445C257.901 129.791 257.803 129.076 257.888 128.301C257.973 127.525 258.222 126.853 258.636 126.285C259.061 125.708 259.606 125.284 260.269 125.015C260.933 124.735 261.658 124.639 262.443 124.724C263.229 124.81 263.91 125.061 264.489 125.476C265.078 125.882 265.513 126.413 265.794 127.067C266.085 127.713 266.189 128.423 266.104 129.199C266.019 129.974 265.764 130.65 265.339 131.227C264.925 131.796 264.386 132.22 263.721 132.499C263.067 132.78 262.347 132.877 261.562 132.791ZM261.699 131.539C262.206 131.594 262.67 131.529 263.093 131.344C263.527 131.15 263.881 130.857 264.155 130.464C264.43 130.062 264.598 129.587 264.658 129.04C264.717 128.494 264.656 127.999 264.473 127.557C264.291 127.104 264.008 126.741 263.626 126.468C263.253 126.196 262.813 126.032 262.306 125.977C261.799 125.921 261.33 125.986 260.897 126.17C260.475 126.355 260.121 126.648 259.835 127.05C259.561 127.442 259.394 127.912 259.334 128.459C259.274 129.005 259.336 129.505 259.517 129.957C259.71 130.401 259.993 130.764 260.364 131.046C260.747 131.319 261.192 131.483 261.699 131.539ZM273.57 129.864C274.566 130.234 275.008 130.931 274.896 131.955C274.82 132.651 274.498 133.159 273.93 133.479C273.371 133.8 272.575 133.904 271.541 133.791L267.739 133.376L268.603 125.473L272.271 125.874C273.205 125.976 273.917 126.235 274.404 126.65C274.893 127.056 275.102 127.582 275.032 128.228C274.986 128.645 274.832 128.996 274.57 129.279C274.318 129.553 273.985 129.748 273.57 129.864ZM269.633 129.026L271.78 129.261C272.327 129.32 272.75 129.266 273.05 129.098C273.36 128.93 273.536 128.658 273.577 128.28C273.66 127.524 273.144 127.086 272.031 126.964L269.884 126.73L269.633 129.026ZM271.558 132.677C272.154 132.742 272.612 132.696 272.931 132.54C273.25 132.384 273.431 132.107 273.474 131.709C273.519 131.302 273.413 130.983 273.156 130.754C272.909 130.526 272.493 130.38 271.906 130.315L269.52 130.055L269.261 132.426L271.558 132.677ZM280.274 134.836C279.488 134.75 278.801 134.499 278.213 134.083C277.625 133.667 277.185 133.136 276.893 132.49C276.613 131.836 276.515 131.121 276.6 130.346C276.684 129.57 276.934 128.898 277.348 128.33C277.773 127.753 278.318 127.329 278.981 127.06C279.645 126.78 280.37 126.683 281.155 126.769C281.94 126.855 282.622 127.106 283.201 127.521C283.79 127.927 284.225 128.458 284.505 129.112C284.797 129.758 284.9 130.468 284.816 131.243C284.731 132.019 284.476 132.695 284.051 133.272C283.637 133.841 283.097 134.265 282.433 134.544C281.779 134.825 281.059 134.922 280.274 134.836ZM280.41 133.584C280.917 133.639 281.382 133.574 281.805 133.389C282.238 133.195 282.592 132.902 282.867 132.509C283.142 132.107 283.31 131.632 283.369 131.085C283.429 130.539 283.367 130.044 283.184 129.602C283.003 129.149 282.72 128.786 282.338 128.513C281.965 128.241 281.525 128.077 281.018 128.022C280.511 127.966 280.042 128.031 279.609 128.215C279.186 128.4 278.832 128.693 278.547 129.095C278.273 129.487 278.106 129.957 278.046 130.504C277.986 131.05 278.047 131.55 278.229 132.002C278.422 132.446 278.705 132.809 279.076 133.091C279.459 133.364 279.903 133.528 280.41 133.584ZM291.513 127.901C292.278 127.985 292.946 128.229 293.515 128.633C294.085 129.037 294.505 129.561 294.777 130.205C295.059 130.849 295.156 131.569 295.069 132.364C294.982 133.159 294.731 133.846 294.316 134.424C293.912 134.994 293.388 135.414 292.744 135.686C292.101 135.958 291.397 136.052 290.631 135.968C290.065 135.906 289.555 135.74 289.101 135.469C288.658 135.199 288.295 134.838 288.013 134.384L287.566 138.47L286.135 138.314L287.315 127.518L288.686 127.668L288.55 128.92C288.916 128.518 289.354 128.234 289.865 128.068C290.377 127.893 290.926 127.837 291.513 127.901ZM290.649 134.703C291.156 134.758 291.621 134.693 292.043 134.508C292.477 134.314 292.831 134.021 293.105 133.628C293.39 133.227 293.563 132.753 293.623 132.206C293.682 131.659 293.616 131.164 293.423 130.72C293.241 130.268 292.959 129.905 292.576 129.632C292.203 129.36 291.764 129.196 291.257 129.141C290.76 129.086 290.294 129.156 289.861 129.35C289.438 129.536 289.085 129.824 288.8 130.215C288.526 130.608 288.359 131.077 288.299 131.624C288.24 132.171 288.301 132.671 288.483 133.123C288.666 133.566 288.948 133.928 289.329 134.211C289.712 134.485 290.152 134.648 290.649 134.703ZM300.092 137.002C299.307 136.916 298.62 136.665 298.032 136.249C297.443 135.833 297.004 135.302 296.712 134.656C296.431 134.002 296.333 133.287 296.418 132.512C296.503 131.736 296.752 131.064 297.167 130.496C297.592 129.919 298.136 129.495 298.799 129.226C299.464 128.946 300.188 128.849 300.974 128.935C301.759 129.021 302.441 129.272 303.019 129.687C303.608 130.093 304.043 130.624 304.324 131.278C304.616 131.924 304.719 132.634 304.634 133.409C304.55 134.185 304.295 134.861 303.869 135.438C303.455 136.007 302.916 136.431 302.252 136.71C301.597 136.991 300.877 137.088 300.092 137.002ZM300.229 135.75C300.736 135.805 301.201 135.74 301.623 135.555C302.057 135.361 302.411 135.068 302.685 134.675C302.961 134.273 303.128 133.798 303.188 133.251C303.248 132.705 303.186 132.21 303.003 131.767C302.821 131.315 302.539 130.952 302.156 130.679C301.784 130.407 301.344 130.243 300.837 130.188C300.33 130.132 299.86 130.197 299.427 130.381C299.005 130.566 298.651 130.859 298.366 131.261C298.091 131.653 297.924 132.123 297.865 132.67C297.805 133.216 297.866 133.716 298.048 134.168C298.241 134.612 298.523 134.975 298.895 135.257C299.277 135.53 299.722 135.694 300.229 135.75ZM314.385 137.206L314.048 140.293L312.706 140.146L312.906 138.312L306.301 137.59L306.1 139.424L304.743 139.276L305.081 136.189L305.498 136.235C306.008 136.261 306.395 135.941 306.659 135.275C306.923 134.61 307.158 133.655 307.365 132.41L307.776 129.754L313.904 130.424L313.177 137.074L314.385 137.206ZM308.666 132.658C308.517 133.648 308.342 134.464 308.142 135.106C307.952 135.739 307.677 136.181 307.317 136.434L311.746 136.918L312.336 131.52L308.906 131.145L308.666 132.658ZM319.803 130.993C320.897 131.113 321.702 131.472 322.22 132.072C322.748 132.673 322.954 133.505 322.838 134.569L322.316 139.341L320.959 139.192L321.073 138.148C320.795 138.49 320.421 138.736 319.952 138.886C319.494 139.027 318.961 139.064 318.355 138.998C317.47 138.901 316.783 138.61 316.293 138.124C315.813 137.639 315.611 137.048 315.687 136.353C315.763 135.657 316.077 135.128 316.63 134.766C317.183 134.394 318.012 134.268 319.115 134.388L321.382 134.636L321.413 134.353C321.48 133.737 321.353 133.245 321.031 132.878C320.709 132.51 320.2 132.289 319.504 132.213C319.037 132.162 318.571 132.191 318.106 132.301C317.642 132.402 317.242 132.564 316.906 132.789L316.427 131.65C316.87 131.367 317.385 131.171 317.97 131.064C318.556 130.947 319.167 130.924 319.803 130.993ZM318.714 137.921C319.261 137.981 319.746 137.913 320.17 137.718C320.595 137.513 320.921 137.196 321.149 136.768L321.269 135.665L319.063 135.424C317.85 135.291 317.199 135.633 317.11 136.448C317.066 136.845 317.186 137.175 317.469 137.438C317.752 137.7 318.167 137.861 318.714 137.921Z" fill="black"/>
<circle cx="218.704" cy="85.2638" r="2.5" transform="rotate(6.23702 218.704 85.2638)" fill="black"/>
<path d="M243.201 92.4679L244.342 82.03L245.818 82.1914L244.938 90.2434L251.991 82.866L253.363 83.016L252.222 93.4538L250.761 93.2941L251.639 85.257L244.573 92.6178L243.201 92.4679ZM255.238 93.7834L256.102 85.8805L257.533 86.0369L257.166 89.3919L261.67 89.8841L262.036 86.529L263.468 86.6855L262.604 94.5884L261.173 94.432L261.534 91.1217L257.031 90.6296L256.669 93.9398L255.238 93.7834ZM270.086 95.5269C270.076 95.5258 270.042 95.522 269.982 95.5155C269.932 95.51 269.883 95.5046 269.833 95.4992C269.783 95.4937 269.753 95.4905 269.743 95.4894C268.125 95.2924 266.907 94.7971 266.088 94.0035C265.271 93.1999 264.933 92.147 265.075 90.8448C265.217 89.5525 265.772 88.6122 266.742 88.0241C267.722 87.4271 269.033 87.2133 270.675 87.3826C270.695 87.3848 270.724 87.388 270.764 87.3924C270.814 87.3978 270.859 87.4027 270.898 87.407C270.948 87.4125 270.978 87.4157 270.988 87.4168C272.648 87.5982 273.897 88.0869 274.736 88.8827C275.584 89.6796 275.938 90.7242 275.797 92.0165C275.653 93.3286 275.081 94.2871 274.079 94.8919C273.077 95.4966 271.747 95.7083 270.086 95.5269ZM270.193 94.2711C271.058 94.3656 271.786 94.3345 272.377 94.1777C272.977 94.022 273.444 93.7512 273.778 93.3652C274.112 92.9791 274.313 92.478 274.38 91.8616C274.446 91.2553 274.358 90.7325 274.114 90.2934C273.87 89.8544 273.471 89.4989 272.918 89.2272C272.374 88.9565 271.669 88.7739 270.805 88.6794C270.785 88.6772 270.745 88.6728 270.685 88.6663C270.626 88.6598 270.591 88.656 270.581 88.6549C269.736 88.5626 269.018 88.5948 268.428 88.7516C267.848 88.8995 267.397 89.162 267.074 89.5392C266.751 89.9163 266.557 90.4031 266.492 90.9996C266.426 91.606 266.509 92.1331 266.742 92.5811C266.984 93.0301 267.372 93.3944 267.905 93.6739C268.448 93.9545 269.136 94.1454 269.97 94.2466C269.99 94.2488 270.024 94.2526 270.074 94.258C270.134 94.2646 270.174 94.2689 270.193 94.2711ZM268.978 98.2124L270.503 84.2555L271.905 84.4086L270.38 98.3655L268.978 98.2124ZM280.761 96.6634C279.966 96.5764 279.279 96.3253 278.701 95.9101C278.123 95.4948 277.688 94.9644 277.396 94.3189C277.106 93.6634 277.003 92.948 277.088 92.1726C277.173 91.3873 277.428 90.711 277.853 90.1437C278.277 89.5765 278.815 89.1575 279.469 88.8869C280.123 88.6063 280.848 88.5095 281.643 88.5964C282.428 88.6822 283.11 88.9328 283.689 89.3481C284.278 89.7545 284.713 90.2799 284.995 90.9243C285.288 91.5599 285.391 92.2753 285.304 93.0706C285.218 93.8559 284.963 94.5322 284.539 95.0995C284.125 95.6678 283.585 96.0918 282.921 96.3712C282.267 96.6518 281.547 96.7492 280.761 96.6634ZM280.898 95.4108C281.405 95.4662 281.87 95.4013 282.293 95.2161C282.725 95.0321 283.079 94.7437 283.353 94.3512C283.628 93.9487 283.796 93.4692 283.857 92.9125C283.919 92.3459 283.858 91.8463 283.674 91.4137C283.491 90.9712 283.208 90.6134 282.826 90.3402C282.453 90.0681 282.013 89.9043 281.506 89.8489C280.999 89.7935 280.534 89.8584 280.112 90.0436C279.689 90.2288 279.336 90.5171 279.052 90.9085C278.768 91.29 278.596 91.7641 278.534 92.3307C278.473 92.8874 278.539 93.3925 278.731 93.846C278.923 94.2896 279.206 94.6475 279.579 94.9196C279.952 95.1917 280.391 95.3554 280.898 95.4108ZM291.119 97.7953C290.463 97.7236 289.878 97.5088 289.364 97.1508C288.861 96.784 288.478 96.2844 288.215 95.6521C287.962 95.0209 287.884 94.258 287.982 93.3633C288.08 92.4686 288.315 91.7399 288.689 91.1771C289.072 90.6154 289.548 90.2148 290.118 89.9753C290.697 89.7368 291.325 89.6545 292.001 89.7284C292.776 89.8131 293.444 90.0571 294.003 90.4602C294.563 90.8634 294.983 91.3872 295.265 92.0316C295.548 92.6661 295.645 93.3859 295.557 94.1911C295.469 94.9963 295.218 95.6831 294.804 96.2515C294.389 96.8199 293.866 97.2404 293.232 97.5132C292.599 97.786 291.895 97.8801 291.119 97.7953ZM286.623 100.141L287.803 89.345L289.174 89.4949L288.941 91.6272L288.651 93.4515L288.6 95.3019L288.054 100.297L286.623 100.141ZM291.137 96.5298C291.644 96.5852 292.109 96.5203 292.531 96.3351C292.964 96.151 293.317 95.8627 293.591 95.4702C293.877 95.0688 294.05 94.5897 294.111 94.0331C294.173 93.4664 294.106 92.9663 293.912 92.5326C293.729 92.0901 293.447 91.7323 293.064 91.4591C292.691 91.187 292.252 91.0233 291.745 90.9679C291.248 90.9135 290.783 90.9784 290.35 91.1625C289.928 91.3477 289.574 91.636 289.29 92.0275C289.017 92.4101 288.849 92.8847 288.787 93.4513C288.726 94.008 288.787 94.5125 288.969 94.965C289.162 95.4086 289.445 95.7664 289.817 96.0385C290.2 96.3117 290.64 96.4754 291.137 96.5298ZM297.205 98.3699L298.069 90.467L299.545 90.6283L302.306 96.845L301.709 96.7799L305.837 91.316L307.179 91.4627L306.316 99.3656L305.018 99.2238L305.706 92.9313L305.93 93.0916L302.164 98.0065L301.537 97.938L298.918 92.2196L299.208 92.191L298.517 98.5133L297.205 98.3699ZM313.948 100.2L314.13 98.5297L314.09 98.2084L314.401 95.3603C314.468 94.754 314.34 94.2672 314.018 93.9C313.707 93.524 313.198 93.2974 312.493 93.2203C312.025 93.1692 311.559 93.1988 311.095 93.309C310.631 93.4092 310.231 93.5717 309.895 93.7965L309.416 92.6577C309.859 92.3742 310.373 92.1789 310.958 92.0718C311.554 91.9559 312.166 91.9322 312.792 92.0006C313.875 92.119 314.682 92.4737 315.211 93.0647C315.74 93.6556 315.945 94.4929 315.826 95.5764L315.305 100.348L313.948 100.2ZM311.344 100.006C310.757 99.9415 310.251 99.7856 309.825 99.5379C309.41 99.2913 309.102 98.981 308.901 98.607C308.702 98.2231 308.626 97.8074 308.675 97.3601C308.722 96.9326 308.864 96.5558 309.101 96.2296C309.347 95.9045 309.711 95.6625 310.191 95.5038C310.681 95.3461 311.319 95.3101 312.104 95.396L314.609 95.6697L314.497 96.6986L312.051 96.4313C311.335 96.3531 310.84 96.4197 310.566 96.6311C310.291 96.8426 310.135 97.1173 310.098 97.4553C310.056 97.8429 310.176 98.1729 310.458 98.4452C310.741 98.7075 311.156 98.8685 311.703 98.9283C312.24 98.9869 312.72 98.9187 313.144 98.7236C313.577 98.5296 313.909 98.2137 314.137 97.776L314.313 98.7911C314.073 99.2376 313.699 99.574 313.192 99.8002C312.685 100.016 312.069 100.085 311.344 100.006ZM319.448 100.801L320.216 93.7777L320.533 94.1895L317.282 93.8343L317.419 92.5817L324.636 93.3705L324.499 94.623L321.264 94.2694L321.647 93.9341L320.88 100.957L319.448 100.801ZM325.236 101.433L326.1 93.5305L327.531 93.6869L326.902 99.4426L332.378 94.2165L333.675 94.3583L332.811 102.261L331.38 102.105L332.009 96.3491L326.548 101.577L325.236 101.433ZM341.316 103.191L338.679 99.0095L339.935 98.4225L343.001 103.375L341.316 103.191ZM335.59 102.565L336.453 94.662L337.885 94.8184L337.021 102.721L335.59 102.565ZM336.954 99.334L337.087 98.1113L339.697 98.3964L339.563 99.6192L336.954 99.334ZM339.97 99.2109L338.662 98.887L342.12 95.2812L343.655 95.4491L339.97 99.2109ZM349.202 104.053L349.384 102.383L349.344 102.061L349.655 99.2132C349.722 98.6068 349.594 98.12 349.272 97.7529C348.961 97.3769 348.452 97.1503 347.747 97.0732C347.279 97.0221 346.813 97.0516 346.349 97.1618C345.885 97.262 345.485 97.4245 345.149 97.6493L344.669 96.5105C345.113 96.227 345.627 96.0317 346.212 95.9247C346.808 95.8087 347.42 95.785 348.046 95.8534C349.129 95.9719 349.936 96.3266 350.465 96.9175C350.994 97.5085 351.199 98.3457 351.08 99.4293L350.559 104.201L349.202 104.053ZM346.598 103.858C346.011 103.794 345.505 103.638 345.079 103.391C344.664 103.144 344.356 102.834 344.155 102.46C343.956 102.076 343.88 101.66 343.929 101.213C343.976 100.785 344.118 100.409 344.355 100.082C344.601 99.7573 344.965 99.5154 345.445 99.3566C345.935 99.1989 346.573 99.163 347.358 99.2488L349.863 99.5226L349.751 100.551L347.305 100.284C346.589 100.206 346.094 100.273 345.82 100.484C345.545 100.695 345.389 100.97 345.352 101.308C345.31 101.696 345.43 102.026 345.712 102.298C345.995 102.56 346.41 102.721 346.957 102.781C347.494 102.84 347.974 102.772 348.398 102.576C348.831 102.382 349.162 102.067 349.391 101.629L349.567 102.644C349.327 103.09 348.953 103.427 348.446 103.653C347.939 103.869 347.323 103.938 346.598 103.858Z" fill="black"/>
<defs>
<linearGradient id="paint0_linear_8_135" x1="11.7281" y1="87.6758" x2="212.72" y2="416.549" gradientUnits="userSpaceOnUse">
<stop stop-color="#BE94F3"/>
<stop offset="1" stop-color="white"/>
</linearGradient>
<linearGradient id="paint1_linear_8_135" x1="409.913" y1="4.3808" x2="595.963" y2="335.769" gradientUnits="userSpaceOnUse">
<stop stop-color="#BE94F3"/>
<stop offset="1" stop-color="white"/>
</linearGradient>
<linearGradient id="paint2_linear_8_135" x1="187.436" y1="2.39247" x2="390.47" y2="336.814" gradientUnits="userSpaceOnUse">
<stop stop-color="#BE94F3"/>
<stop offset="1" stop-color="white"/>
</linearGradient>
</defs>
</svg>
