<svg width="266" height="80" viewBox="0 0 266 80" fill="none" xmlns="http://www.w3.org/2000/svg">
<path d="M99.104 64L118.88 19.2H131.36L151.2 64H138.016L122.528 25.408H127.52L112.032 64H99.104ZM109.92 55.296L113.184 45.952H135.072L138.336 55.296H109.92ZM154.217 64V16.512H166.377V64H154.217ZM174.279 64V29.312H186.439V64H174.279ZM180.359 25.472C178.14 25.472 176.348 24.8533 174.983 23.616C173.618 22.3787 172.935 20.8427 172.935 19.008C172.935 17.1733 173.618 15.6373 174.983 14.4C176.348 13.1627 178.14 12.544 180.359 12.544C182.578 12.544 184.37 13.1413 185.735 14.336C187.1 15.488 187.783 16.9813 187.783 18.816C187.783 20.736 187.1 22.336 185.735 23.616C184.412 24.8533 182.62 25.472 180.359 25.472ZM215.526 64V57.536L214.694 55.936V44.032C214.694 42.112 214.096 40.64 212.902 39.616C211.75 38.5493 209.894 38.016 207.333 38.016C205.67 38.016 203.984 38.2933 202.278 38.848C200.571 39.36 199.12 40.0853 197.926 41.024L193.83 32.768C195.792 31.488 198.139 30.5067 200.87 29.824C203.643 29.0987 206.395 28.736 209.126 28.736C214.758 28.736 219.11 30.0373 222.182 32.64C225.296 35.2 226.854 39.232 226.854 44.736V64H215.526ZM205.286 64.576C202.512 64.576 200.166 64.1067 198.246 63.168C196.326 62.2293 194.854 60.9493 193.83 59.328C192.848 57.7067 192.358 55.8933 192.358 53.888C192.358 51.7547 192.891 49.92 193.958 48.384C195.067 46.8053 196.752 45.6107 199.014 44.8C201.275 43.9467 204.198 43.52 207.782 43.52H215.974V49.856H209.446C207.483 49.856 206.096 50.176 205.286 50.816C204.518 51.456 204.134 52.3093 204.134 53.376C204.134 54.4427 204.539 55.296 205.35 55.936C206.16 56.576 207.27 56.896 208.678 56.896C210 56.896 211.195 56.576 212.262 55.936C213.371 55.2533 214.182 54.2293 214.694 52.864L216.358 57.344C215.718 59.7333 214.459 61.5467 212.582 62.784C210.747 63.9787 208.315 64.576 205.286 64.576ZM247.137 64.576C244.193 64.576 241.313 64.2347 238.497 63.552C235.724 62.8693 233.484 62.016 231.777 60.992L235.425 52.672C237.046 53.6533 238.945 54.4427 241.121 55.04C243.297 55.5947 245.43 55.872 247.521 55.872C249.569 55.872 250.977 55.6587 251.745 55.232C252.556 54.8053 252.961 54.2293 252.961 53.504C252.961 52.8213 252.577 52.3307 251.809 52.032C251.084 51.6907 250.102 51.4347 248.865 51.264C247.67 51.0933 246.348 50.9013 244.897 50.688C243.446 50.4747 241.974 50.1973 240.481 49.856C239.03 49.472 237.686 48.9173 236.449 48.192C235.254 47.424 234.294 46.4 233.569 45.12C232.844 43.84 232.481 42.2187 232.481 40.256C232.481 38.0373 233.121 36.0747 234.401 34.368C235.724 32.6187 237.644 31.2533 240.161 30.272C242.678 29.248 245.75 28.736 249.377 28.736C251.809 28.736 254.262 28.992 256.737 29.504C259.254 29.9733 261.366 30.6987 263.073 31.68L259.425 39.936C257.718 38.9547 256.012 38.2933 254.305 37.952C252.598 37.568 250.977 37.376 249.441 37.376C247.393 37.376 245.942 37.6107 245.089 38.08C244.278 38.5493 243.873 39.1253 243.873 39.808C243.873 40.4907 244.236 41.024 244.961 41.408C245.686 41.7493 246.646 42.0267 247.841 42.24C249.078 42.4107 250.422 42.6027 251.873 42.816C253.324 42.9867 254.774 43.264 256.225 43.648C257.718 44.032 259.062 44.608 260.257 45.376C261.494 46.1013 262.476 47.104 263.201 48.384C263.926 49.6213 264.289 51.2213 264.289 53.184C264.289 55.3173 263.628 57.2373 262.305 58.944C261.025 60.6507 259.105 62.016 256.545 63.04C254.028 64.064 250.892 64.576 247.137 64.576Z" fill="black"/>
<rect y="3" width="72" height="72" rx="15" fill="black"/>
<path d="M45.496 53.296H26.552L23.032 62H10.104L29.88 17.2H42.36L62.2 62H49.016L45.496 53.296ZM41.784 43.952L36.024 29.616L30.264 43.952H41.784Z" fill="white"/>
<path d="M45.496 53.296L45.7741 53.1835L45.6983 52.996H45.496V53.296ZM26.552 53.296V52.996H26.3497L26.2739 53.1835L26.552 53.296ZM23.032 62V62.3H23.2343L23.3101 62.1125L23.032 62ZM10.104 62L9.82955 61.8788L9.64364 62.3H10.104V62ZM29.88 17.2V16.9H29.6845L29.6056 17.0788L29.88 17.2ZM42.36 17.2L42.6343 17.0785L42.5552 16.9H42.36V17.2ZM62.2 62V62.3H62.661L62.4743 61.8785L62.2 62ZM49.016 62L48.7379 62.1125L48.8137 62.3H49.016V62ZM41.784 43.952V44.252H42.2278L42.0624 43.8402L41.784 43.952ZM36.024 29.616L36.3024 29.5042L36.024 28.8113L35.7456 29.5042L36.024 29.616ZM30.264 43.952L29.9856 43.8402L29.8202 44.252H30.264V43.952ZM45.496 52.996H26.552V53.596H45.496V52.996ZM26.2739 53.1835L22.7539 61.8875L23.3101 62.1125L26.8301 53.4085L26.2739 53.1835ZM23.032 61.7H10.104V62.3H23.032V61.7ZM10.3784 62.1212L30.1545 17.3211L29.6056 17.0788L9.82955 61.8788L10.3784 62.1212ZM29.88 17.5H42.36V16.9H29.88V17.5ZM42.0857 17.3215L61.9257 62.1215L62.4743 61.8785L42.6343 17.0785L42.0857 17.3215ZM62.2 61.7H49.016V62.3H62.2V61.7ZM49.2941 61.8875L45.7741 53.1835L45.2179 53.4085L48.7379 62.1125L49.2941 61.8875ZM42.0624 43.8402L36.3024 29.5042L35.7456 29.7278L41.5056 44.0638L42.0624 43.8402ZM35.7456 29.5042L29.9856 43.8402L30.5424 44.0638L36.3024 29.7278L35.7456 29.5042ZM30.264 44.252H41.784V43.652H30.264V44.252Z" fill="black"/>
</svg>
